<?xml version="1.0" encoding="iso-8859-1"?>
<!-- Generator: Adobe Illustrator 19.0.0, SVG Export Plug-In . SVG Version: 6.00 Build 0)  -->
<svg version="1.1" id="Layer_1" xmlns="http://www.w3.org/2000/svg" xmlns:xlink="http://www.w3.org/1999/xlink" x="0px" y="0px"
	 viewBox="0 0 511.999 511.999" style="enable-background:new 0 0 511.999 511.999;" xml:space="preserve">
<rect x="179.041" y="298.762" style="fill:#D29B6E;" width="153.913" height="76.956"/>
<path style="fill:#FF4B4B;" d="M349.011,362.985l-4.919-19.674c-1.326-5.307-7.226-8.021-12.12-5.574l-75.973,37.987l-75.973-37.987
	c-4.893-2.447-10.793,0.267-12.12,5.574l-4.919,19.674L60.193,386.707c-15.518,3.582-26.513,17.401-26.513,33.327v66.849
	c0,9.445,7.656,17.101,17.101,17.101h410.434c9.445,0,17.101-7.656,17.101-17.101v-66.849c0-15.927-10.993-29.746-26.513-33.327
	L349.011,362.985z"/>
<g>
	<path style="fill:#C83741;" d="M255.999,418.477c40.82,0,76.403-22.07,95.732-54.865l-2.721-0.627l-4.919-19.674
		c-1.326-5.307-7.226-8.021-12.12-5.574l-75.973,37.987l-75.973-37.987c-4.893-2.447-10.793,0.267-12.12,5.574l-4.919,19.674
		l-2.721,0.627C179.597,396.406,215.179,418.477,255.999,418.477z"/>
	<path style="fill:#C83741;" d="M110.638,480.295c0-12.134-5.156-23.696-14.183-31.805l-53.643-51.552
		c-5.663,6.15-9.131,14.26-9.131,23.097v66.848c0,9.444,7.657,17.101,17.101,17.101h59.855v-23.689H110.638z"/>
	<path style="fill:#C83741;" d="M401.361,480.295c0-12.134,5.156-23.696,14.183-31.805l53.643-51.552
		c5.663,6.15,9.131,14.26,9.131,23.097v66.848c0,9.444-7.657,17.101-17.101,17.101h-59.855v-23.689H401.361z"/>
</g>
<path style="fill:#F0C087;" d="M358.608,196.158v59.855c0,16.161-7.61,31.381-20.522,41.043l-34.203,25.652
	c-8.892,6.67-19.666,10.261-30.783,10.261h-34.203c-11.116,0-21.89-3.591-30.783-10.261l-34.203-25.652
	c-12.912-9.662-20.522-24.883-20.522-41.043v-59.855c0,0,0-51.304,25.652-68.406c28.901-19.239,50.278-8.551,76.956-8.551
	c31.638,0,53.014-4.617,67.38-12.228C358.522,143.057,358.608,196.158,358.608,196.158z"/>
<path style="fill:#E6AF78;" d="M204.695,256.013c0-20.91,0-59.855,0-85.507c0-8.551,8.551-25.652,25.652-25.652
	c33.775,0,84.152-8.37,97.128-33.278c-0.268-0.311-0.55-0.616-0.823-0.925h-11.569c-13.959,5.371-32.988,8.551-59.084,8.551
	c-26.678,0-48.055-10.688-76.956,8.551c-25.652,17.101-25.652,68.406-25.652,68.406v59.855c0,16.161,7.61,31.381,20.522,41.043
	l34.203,25.652c8.892,6.67,19.666,10.261,30.783,10.261h17.101C238.898,332.97,204.695,298.767,204.695,256.013z"/>
<path style="fill:#625D6B;" d="M341.935,40.125C329.447,24.058,302.016,7.26,256.001,8.042
	c-26.741,0.454-76.956,8.551-102.965,22.09l8.908,12.113c-51.304,34.203-42.754,102.608-42.754,102.608
	c34.203,25.652,34.203,51.304,34.203,51.304s0-51.304,25.652-68.406c28.902-19.269,50.235-8.551,76.956-8.551
	c31.391,0,52.683-4.521,67.052-12.048c35.535,28.551,35.556,89.004,35.556,89.004s8.551-25.652,33.637-42.754
	C392.245,153.405,397.436,50.889,341.935,40.125z"/>
<path style="fill:#504B5A;" d="M238.898,102.101c-59.855-17.101-85.507,8.551-85.507,8.551c-8.551-34.203,8.551-68.406,8.551-68.406
	c-51.304,34.203-42.754,102.608-42.754,102.608c34.203,25.652,34.203,51.304,34.203,51.304s0-51.304,25.652-68.406
	c28.902-19.269,50.235-8.551,76.956-8.551c31.391,0,52.683-4.521,67.052-12.048C323.053,107.154,283.174,114.75,238.898,102.101z"/>
<path d="M453.608,378.896l-98.011-22.618l-3.728-14.911c-1.225-4.901-4.561-8.923-9.15-11.033c-0.573-0.264-1.156-0.493-1.746-0.688
	v-24.733l1.924-1.443c14.858-11.144,23.728-28.883,23.728-47.456v-58.406c1.91-4.81,10.547-24.226,30.137-37.579
	c2.071-1.413,3.364-3.713,3.491-6.218c0.222-4.379,4.68-106.176-53.842-120.89c-1.291-1.518-2.666-3.012-4.141-4.461
	C331.106,17.482,305.043-0.81,255.864,0.028c-14.569,0.247-34.447,2.598-53.17,6.288c-15.611,3.077-37.543,8.473-53.36,16.706
	c-2.077,1.081-3.576,3.015-4.106,5.295c-0.53,2.281-0.037,4.678,1.35,6.565l4.148,5.641c-19.041,15.218-31.857,37.268-37.26,64.281
	c-4.478,22.395-2.325,40.294-2.231,41.044c0.269,2.159,1.404,4.114,3.145,5.419c30.1,22.574,30.974,44.083,30.996,44.891v59.855
	c0,18.572,8.87,36.313,23.728,47.456l1.924,1.443v24.733c-0.59,0.196-1.174,0.424-1.746,0.688c-4.59,2.111-7.925,6.132-9.15,11.034
	l-3.728,14.911l-98.012,22.617c-19.268,4.446-32.726,21.363-32.726,41.137v66.848c0,13.85,11.268,25.118,25.118,25.118h410.434
	c13.85,0,25.118-11.268,25.118-25.118v-66.848C486.334,400.258,472.876,383.342,453.608,378.896z M459.119,398.571l-48.931,43.956
	c-10.703,9.614-16.843,23.381-16.843,37.768v15.672H264.016v-26.721h17.636c4.427,0,8.016-3.589,8.016-8.016
	s-3.589-8.016-8.016-8.016h-17.636v-26.99c37.251-2.464,70.921-22.032,91.597-53.488l94.39,21.782
	C453.368,395.294,456.432,396.701,459.119,398.571z M341.341,365.258c-17.762,26.152-46.04,42.487-77.325,44.884v-29.465
	l71.542-35.771c0.068-0.034,0.229-0.114,0.463-0.007c0.233,0.107,0.277,0.282,0.295,0.356l4.919,19.673
	C341.262,365.041,341.309,365.147,341.341,365.258z M380.062,102.461c4.109,19.664,4.376,38.834,4.275,46.747
	c-8.667,6.495-15.337,13.84-20.351,20.662c-3.32-18.332-10.815-42.721-27.689-61.464c14.678-11.159,21.777-27.402,21.777-49.059
	c0-0.883-0.066-1.785-0.165-2.697C368.137,65.605,375.561,80.92,380.062,102.461z M126.881,140.662
	c-0.807-13.294-1.085-64.685,39.509-91.747c1.822-1.215,3.069-3.122,3.448-5.279c0.379-2.157-0.139-4.375-1.437-6.139l-2.997-4.075
	c20.046-7.758,57.368-16.797,90.733-17.364c43.303-0.726,65.518,14.616,74.893,23.834c8.127,7.991,11.012,15.475,11.012,19.456
	c0,25.633-10.222,51.839-86.041,51.839c-6.724,0-13.326-0.752-19.713-1.48c-18.737-2.136-38.112-4.343-61.69,11.377
	c-14.225,9.484-21.526,27.279-25.274,43.173C144.26,156.837,137.075,148.737,126.881,140.662z M161.407,256.013v-59.855
	c0-13.076,3.966-49.658,22.082-61.735c18.698-12.465,33.659-10.761,50.982-8.788c6.831,0.779,13.894,1.583,21.527,1.583
	c27.874,0,49.771-3.466,66.031-10.579c28.426,28.701,28.564,78.958,28.561,79.469c0,0.01,0.001,0.019,0.001,0.028
	c0,0.007-0.001,0.015-0.001,0.022v59.855c0,13.553-6.473,26.499-17.315,34.63l-34.203,25.652
	c-7.443,5.584-16.667,8.658-25.973,8.658h-34.203c-9.305,0-18.528-3.074-25.973-8.658l-34.203-25.652
	C167.88,282.512,161.407,269.566,161.407,256.013z M203.306,329.121c10.201,7.651,22.841,11.864,35.592,11.864h34.203
	c12.751,0,25.391-4.213,35.592-11.864l16.246-12.185v15.354l-68.94,34.47l-68.94-34.47v-15.354L203.306,329.121z M175.684,345.255
	c0.019-0.074,0.063-0.249,0.295-0.356c0.087-0.041,0.164-0.055,0.229-0.055c0.111,0,0.19,0.04,0.234,0.062l71.542,35.771v29.465
	c-31.284-2.396-59.563-18.73-77.325-44.883c0.033-0.111,0.079-0.217,0.108-0.33L175.684,345.255z M61.996,394.517l94.39-21.782
	c20.677,31.457,54.347,51.024,91.597,53.488v26.99h-17.636c-4.427,0-8.016,3.589-8.016,8.016s3.589,8.016,8.016,8.016h17.636v26.721
	H118.654v-15.672c0-14.364-6.119-28.109-16.789-37.721l-48.063-44.641C56.259,396.374,59.016,395.205,61.996,394.517z
	 M41.698,486.882v-66.848c0-3.427,0.671-6.704,1.87-9.723L91,454.363c0.032,0.03,0.065,0.06,0.098,0.09
	c7.324,6.578,11.523,15.997,11.523,25.841v15.672H50.783C45.773,495.967,41.698,491.892,41.698,486.882z M470.301,486.882
	c0,5.01-4.075,9.085-9.085,9.085h-51.839v-15.672c0-9.844,4.201-19.264,11.524-25.841l47.946-43.071
	c0.943,2.717,1.454,5.63,1.454,8.651V486.882z"/>
<g>
</g>
<g>
</g>
<g>
</g>
<g>
</g>
<g>
</g>
<g>
</g>
<g>
</g>
<g>
</g>
<g>
</g>
<g>
</g>
<g>
</g>
<g>
</g>
<g>
</g>
<g>
</g>
<g>
</g>
</svg>
