<?xml version="1.0" encoding="iso-8859-1"?>
<!-- Generator: Adobe Illustrator 19.0.0, SVG Export Plug-In . SVG Version: 6.00 Build 0)  -->
<svg version="1.1" id="Layer_1" xmlns="http://www.w3.org/2000/svg" xmlns:xlink="http://www.w3.org/1999/xlink" x="0px" y="0px"
	 viewBox="0 0 512 512" style="enable-background:new 0 0 512 512;" xml:space="preserve">
<rect x="204.693" y="307.307" style="fill:#D29B6E;" width="102.614" height="85.511"/>
<path style="fill:#FF4B4B;" d="M402.469,411.25c0,0-57.767-17.208-74.755-22.342c-2.875-0.869-5.079-3.187-5.808-6.101
	l-3.613-14.451c-1.277-5.109-6.824-7.861-11.665-5.786L256,384.267l-50.629-21.699c-4.84-2.075-10.388,0.677-11.664,5.786
	l-3.613,14.451c-0.729,2.914-2.932,5.232-5.808,6.101c-16.988,5.134-74.755,22.342-74.755,22.342
	c-14.557,4.282-24.554,17.641-24.554,32.815v42.817c0,9.446,7.656,17.102,17.102,17.102h307.841c9.446,0,17.102-7.656,17.102-17.102
	v-42.817C427.023,428.891,417.027,415.532,402.469,411.25z"/>
<g>
	<path style="fill:#C83741;" d="M256,435.574c35.182,0,65.802-17.59,81.935-43.593c-4.086-1.225-7.655-2.297-10.222-3.073
		c-2.874-0.869-5.079-3.187-5.808-6.101l-3.613-14.451c-1.276-5.109-6.824-7.861-11.665-5.786L256,384.267l-50.628-21.699
		c-4.841-2.074-10.389,0.677-11.665,5.786l-3.613,14.451c-0.729,2.915-2.933,5.233-5.808,6.101
		c-2.565,0.776-6.134,1.848-10.222,3.073C190.198,417.984,220.818,435.574,256,435.574z"/>
	<path style="fill:#C83741;" d="M144.835,503.983v-23.579c0-6.803-2.702-13.329-7.513-18.14l-42.329-42.328
		c-6.241,6.263-10.016,14.843-10.016,24.128v42.817c0,9.445,7.658,17.102,17.102,17.102H144.835z"/>
	<path style="fill:#C83741;" d="M367.165,503.983v-23.579c0-6.803,2.702-13.329,7.513-18.14l42.329-42.328
		c6.241,6.263,10.016,14.843,10.016,24.128v42.817c0,9.445-7.658,17.102-17.102,17.102H367.165z"/>
</g>
<path style="fill:#625D6B;" d="M256,8.017c-42.505,0-76.96,32.541-76.96,72.685c0,1.243,0.131,2.454,0.197,3.682h153.528
	c0.065-1.228,0.197-2.439,0.197-3.682C332.96,40.558,298.505,8.017,256,8.017z"/>
<path style="fill:#FFCF65;" d="M256,50.772c-47.227,0-85.511,26.799-85.511,59.858c0,2.793,0.369,5.52,0.898,8.21h169.227
	c0.529-2.691,0.898-5.417,0.898-8.21C341.511,77.572,303.227,50.772,256,50.772z"/>
<path style="fill:#504B5A;" d="M256,84.977c-52.893,0-119.716,43.133-119.716,106.889c0,26.467,12.363,55.212,30.192,79.856h179.048
	c17.829-24.644,30.192-53.389,30.192-79.856C375.716,128.11,308.893,84.977,256,84.977z"/>
<path style="fill:#F0C087;" d="M249.235,171.944c-12.722,17.036-42.978,49.851-87.298,49.851l6.395,70.343
	c1.34,14.746,10.215,27.75,23.459,34.371l45.088,22.544c12.037,6.019,26.205,6.019,38.242,0l45.088-22.544
	c13.244-6.622,22.119-19.625,23.459-34.371l6.394-70.343c-44.32,0-74.576-32.815-87.298-49.851
	C259.386,167.419,252.614,167.419,249.235,171.944z"/>
<path style="fill:#E6AF78;" d="M268.345,178.969c-2.129-2.525-3.991-4.898-5.58-7.025c-3.379-4.525-10.151-4.525-13.53,0
	c-12.721,17.036-42.978,49.851-87.298,49.851l6.394,70.343c1.34,14.746,10.215,27.748,23.459,34.371l45.088,22.544
	c6.115,3.057,12.779,4.544,19.435,4.496c-9.599-7.596-22.09-21.508-31.252-46.315c-2.508-6.786-6.683-31.879-9.657-57.13
	c-0.679-5.763,1.533-11.479,6.011-15.169C239.204,220.281,259.193,200.307,268.345,178.969z"/>
<path d="M422.984,414.608c-0.102-0.113-0.199-0.231-0.308-0.34c-0.084-0.084-0.175-0.157-0.262-0.237
	c-4.843-4.794-10.856-8.459-17.656-10.463c-0.599-0.178-57.949-17.263-74.724-22.332c-0.172-0.052-0.306-0.196-0.351-0.373
	l-3.613-14.451c-1.179-4.718-4.355-8.663-8.71-10.824c-0.663-0.329-1.346-0.594-2.036-0.829v-16.842l8.47-4.235
	c15.84-7.919,26.254-23.179,27.858-40.816l1.66-18.258c19.629-27.738,30.422-57.045,30.422-82.741
	c0-28.208-12.181-54.888-34.522-76.159c0.204-1.766,0.317-3.455,0.317-5.077c0-10.095-2.977-19.798-8.587-28.62
	c0.019-0.422,0.036-0.852,0.036-1.309C340.977,36.202,302.856,0,256,0s-84.977,36.202-84.977,80.701
	c0,0.457,0.017,0.887,0.036,1.309c-5.611,8.822-8.587,18.525-8.587,28.62c0,1.623,0.113,3.31,0.317,5.077
	c-22.341,21.271-34.522,47.951-34.522,76.159c0,25.696,10.793,55.003,30.422,82.74l1.66,18.258
	c1.603,17.637,12.018,32.895,27.857,40.816l8.47,4.235v16.841c-0.69,0.235-1.374,0.501-2.036,0.829
	c-4.357,2.16-7.531,6.107-8.71,10.824l-3.613,14.451c-0.045,0.177-0.179,0.321-0.35,0.372c-16.778,5.071-74.148,22.16-74.699,22.325
	c-6.809,2.003-12.83,5.669-17.677,10.468c-0.089,0.081-0.181,0.155-0.266,0.241c-0.109,0.11-0.206,0.227-0.308,0.341
	c-7.517,7.73-12.057,18.237-12.057,29.458v42.817c0,13.851,11.268,25.119,25.119,25.119h307.841
	c13.851,0,25.119-11.268,25.119-25.119v-42.817C435.04,432.844,430.499,422.337,422.984,414.608z M400.208,418.941
	c1.609,0.474,3.137,1.113,4.592,1.866l-35.79,35.789c-6.36,6.36-9.862,14.815-9.862,23.809v15.562H243.027
	c3.106-1.479,6.305-3.078,9.587-4.822c27.266-14.483,65.153-41.538,92.609-88.612c23.166,6.93,54.532,16.274,54.958,16.401
	C400.189,418.936,400.199,418.939,400.208,418.941z M323.987,396.076c-12.26,17.399-34.862,29.078-59.97,31.148v-37.671
	l45.77-19.616c0.063-0.026,0.229-0.096,0.448,0.013c0.221,0.11,0.265,0.284,0.281,0.35l3.613,14.452
	C315.412,389.886,319.129,394.106,323.987,396.076z M200.131,74.872c14.816-10.37,34.658-16.083,55.869-16.083
	s41.053,5.712,55.869,16.083c10.919,7.644,17.976,17.091,20.533,27.212C309.394,86.232,281.513,76.96,256,76.96
	c-25.513,0-53.394,9.272-76.402,25.123C182.155,91.962,189.212,82.515,200.131,74.872z M256,16.033
	c31.294,0,57.768,19.666,66.157,46.509c-0.369-0.266-0.718-0.542-1.095-0.805C303.578,49.497,280.47,42.756,256,42.756
	s-47.578,6.742-65.064,18.981c-0.375,0.263-0.726,0.539-1.095,0.805C198.232,35.699,224.706,16.033,256,16.033z M144.301,191.866
	c0-26.649,13.151-51.901,37.031-71.106C202.95,103.374,230.863,92.994,256,92.994s53.05,10.38,74.669,27.767
	c23.88,19.205,37.031,44.457,37.031,71.106c0,13.975-3.808,29.358-10.96,45.031l1.307-14.378c0.204-2.243-0.545-4.468-2.064-6.131
	c-1.519-1.663-3.667-2.61-5.92-2.61c-17.2,0-50.577-6.058-80.875-46.632c-3.139-4.203-7.946-6.614-13.188-6.614
	c-5.242,0-10.05,2.41-13.188,6.614l0,0c-30.298,40.573-63.675,46.632-80.875,46.632c-2.252,0-4.401,0.948-5.92,2.61
	c-1.519,1.663-2.268,3.889-2.064,6.131l1.307,14.378C148.109,221.225,144.301,205.841,144.301,191.866z M176.316,291.412
	l-5.635-61.993c17.887-1.612,35.128-8.186,51.366-19.605c15.513-10.909,26.841-24.008,33.611-33.076
	c0.048-0.065,0.129-0.174,0.342-0.174s0.293,0.109,0.342,0.173c6.77,9.067,18.099,22.167,33.611,33.076
	c16.238,11.419,33.479,17.993,51.366,19.605l-5.635,61.993c-1.097,12.068-8.222,22.508-19.061,27.926l-45.088,22.544
	c-9.729,4.865-21.344,4.865-31.072,0l-45.088-22.544C184.539,313.92,177.413,303.48,176.316,291.412z M233.294,356.224
	c7.109,3.555,14.908,5.332,22.706,5.332c7.799,0,15.597-1.778,22.707-5.332l20.584-10.292v11.061L256,375.545l-43.29-18.553v-11.061
	L233.294,356.224z M197.871,384.75l3.613-14.451c0.017-0.065,0.06-0.239,0.281-0.35c0.09-0.045,0.171-0.06,0.239-0.06
	c0.099,0,0.172,0.031,0.208,0.047l45.77,19.616v37.671c-25.109-2.069-47.71-13.748-59.97-31.148
	C192.87,394.106,196.588,389.886,197.871,384.75z M111.819,418.934c0.46-0.137,36.908-10.995,60.244-17.983
	c0.041,0.073,0.075,0.147,0.119,0.219c15.883,26.167,48,42.421,83.818,42.421c16.462,0,32.137-3.442,45.82-9.694
	c-19.327,20.399-39.828,34.055-56.194,42.804c-25.568,13.669-46.408,18.453-50.28,19.266h-42.495v-15.562
	c0-8.994-3.502-17.45-9.862-23.809l-35.787-35.785C108.665,420.052,110.201,419.409,111.819,418.934z M92.994,486.881v-42.817
	c0-4.222,1.044-8.277,2.901-11.889l35.759,35.758c3.331,3.332,5.166,7.76,5.166,12.472v15.562h-34.74
	C97.069,495.967,92.994,491.891,92.994,486.881z M419.006,486.881c0,5.01-4.076,9.086-9.086,9.086h-34.739v-15.562
	c0-4.712,1.834-9.14,5.166-12.472l35.759-35.759c1.856,3.612,2.9,7.668,2.9,11.89L419.006,486.881L419.006,486.881z"/>
<g>
</g>
<g>
</g>
<g>
</g>
<g>
</g>
<g>
</g>
<g>
</g>
<g>
</g>
<g>
</g>
<g>
</g>
<g>
</g>
<g>
</g>
<g>
</g>
<g>
</g>
<g>
</g>
<g>
</g>
</svg>
