<?xml version="1.0" encoding="iso-8859-1"?>
<!-- Generator: Adobe Illustrator 19.0.0, SVG Export Plug-In . SVG Version: 6.00 Build 0)  -->
<svg version="1.1" id="Layer_1" xmlns="http://www.w3.org/2000/svg" xmlns:xlink="http://www.w3.org/1999/xlink" x="0px" y="0px"
	 viewBox="0 0 512 512" style="enable-background:new 0 0 512 512;" xml:space="preserve">
<path style="fill:#FED159;" d="M349.097,5.384v38.821l-0.203,3.271c-27.656-1.51-65.788-3.271-92.888-3.271
	c-22.83,0-44.904,0.453-65.788,1.308c-9.286,0.39-18.329,0.855-27.102,1.384l-0.189-2.692V5.384c0.014,0,0.014,0,0.014,0
	c8.597-1.094,17.721-2.051,27.277-2.83C210.467,0.906,232.69,0,256.006,0c34.347,0,66.301,1.962,93.078,5.384
	C349.083,5.384,349.083,5.384,349.097,5.384z"/>
<g>
	<path style="fill:#F4C151;" d="M190.219,2.554v42.96c-9.286,0.39-18.329,0.855-27.102,1.384l-0.189-2.692V5.384
		c0.014,0,0.014,0,0.014,0C171.539,4.29,180.662,3.334,190.219,2.554z"/>
	<path style="fill:#F4C151;" d="M321.806,2.554v42.96c9.286,0.39,18.329,0.855,27.102,1.384l0.189-2.692V5.384
		c-0.014,0-0.014,0-0.014,0C340.486,4.29,331.363,3.334,321.806,2.554z"/>
	<path style="fill:#F4C151;" d="M414.726,438.898V512H97.274v-73.102c0-56.672,40.394-103.897,93.959-114.477h0.013
		c10.253-44.08,40.885-33.978,64.761-33.978s51.993-0.038,64.774,33.978C374.345,334.989,414.726,382.226,414.726,438.898z"/>
</g>
<path style="fill:#FED159;" d="M359.323,438.898V512H152.677v-73.102c0-56.672,26.294-103.897,61.163-114.477h0.009
	c12.145,12.064,26.614-33.982,42.156-33.982s30.021,46.046,42.165,33.982C333.038,334.989,359.323,382.226,359.323,438.898z"/>
<g>
	<path style="fill:#F9E8D4;" d="M137.858,229.701c-15.654-4.565-27.094-19.031-27.094-36.158c0-17.072,11.372-31.511,26.96-36.117"
		/>
	<path style="fill:#F9E8D4;" d="M374.277,157.426c15.586,4.605,26.96,19.045,26.96,36.117c0,17.126-11.44,31.592-27.094,36.158"/>
</g>
<path style="fill:#E2D0BF;" d="M375.54,146.316v77.618c0,40.998-20.631,77.165-52.081,98.702c-0.252,0.189-0.528,0.365-0.78,0.541
	c-0.629,0.428-1.258,0.843-1.9,1.245c-18.656,12.064-40.897,19.046-64.774,19.046c-23.877,0-46.105-6.982-64.761-19.046h-0.013
	c-0.642-0.403-1.271-0.818-1.9-1.245c-0.252-0.176-0.516-0.352-0.78-0.541c-31.437-21.537-52.081-57.704-52.081-98.702v-72.51
	c0,0,0-1.912,0-5.107c0.013,0,0.013,0,0.025,0c23.483-26.572,75.429-30.439,119.509-30.439c44.092,0,89.317,5.125,119.509,30.439
	C375.527,146.316,375.527,146.316,375.54,146.316z"/>
<path style="fill:#E2AF47;" d="M262.919,309.7V512h-13.838V309.7c0-3.812,3.095-6.919,6.919-6.919
	C259.824,302.781,262.919,305.888,262.919,309.7z"/>
<path style="fill:#EE4948;" d="M375.54,60.461v85.855c-0.001,0.001-0.001,0.001-0.003,0.003
	c-14.435-1.435-30.055-2.618-46.568-3.512c-22.82-1.22-47.376-1.887-72.963-1.887c-25.575,0-50.143,0.667-72.963,1.887
	c-16.514,0.893-32.133,2.077-46.568,3.512c-0.001-0.001-0.001-0.001-0.003-0.003v-25.084c0,0,0.008-46.442,0.018-65.189
	c0.003-4.384,3.336-8.049,7.703-8.444c8.127-0.736,16.598-1.388,25.365-1.959c4.416-0.289,8.919-0.554,13.486-0.805
	c22.82-1.22,47.388-1.887,72.963-1.887c21.046,0,49.25,1.233,72.963,2.503c4.705,0.264,9.234,0.516,13.486,0.767
	c8.07,0.477,15.324,0.935,20.968,1.302C370.245,47.963,375.54,53.625,375.54,60.461z"/>
<path style="fill:#F9E8D4;" d="M256.006,171.111c-29.876,0-58.352,0.91-84.31,2.56v50.263c0,40.998,14.56,77.165,36.733,98.702
	c0.186,0.189,0.372,0.365,0.55,0.541c0.444,0.428,0.887,0.843,1.34,1.245h0.009c13.159,12.064,28.837,19.046,45.677,19.046
	s32.528-6.982,45.686-19.046c0.453-0.403,0.896-0.818,1.34-1.245c0.177-0.176,0.372-0.352,0.55-0.541
	c22.182-21.537,36.733-57.704,36.733-98.702V173.67C314.363,172.021,285.888,171.111,256.006,171.111z"/>
<g>
	<path style="fill:#D83D3D;" d="M183.043,44.835v97.972c-16.514,0.893-32.133,2.077-46.568,3.512
		c-0.001-0.001-0.001-0.001-0.003-0.003v-25.084c0,0,0.008-46.437,0.018-65.186c0.003-4.385,3.337-8.051,7.705-8.446
		c8.125-0.736,16.597-1.388,25.362-1.959C173.973,45.35,178.477,45.086,183.043,44.835z"/>
	<path style="fill:#D83D3D;" d="M375.54,133.082v13.234c-0.001,0.001-0.001,0.001-0.003,0.003
		c-14.435-1.435-30.055-2.618-46.568-3.512V45.451c4.705,0.264,9.234,0.516,13.486,0.767c10.412,0.615,19.236,1.184,25.147,1.576
		c4.458,0.296,7.914,3.993,7.917,8.461C375.53,86.003,375.54,133.082,375.54,133.082z"/>
</g>
<g>
	<path style="fill:#E2AF47;" d="M175.166,446.17V512h-13.838v-65.83c0-3.824,3.095-6.919,6.919-6.919
		C172.071,439.251,175.166,442.345,175.166,446.17z"/>
	<path style="fill:#E2AF47;" d="M350.672,446.17V512h-13.838v-65.83c0-3.824,3.095-6.919,6.919-6.919
		C347.578,439.251,350.672,442.345,350.672,446.17z"/>
</g>
<circle style="fill:#FED159;" cx="256.013" cy="85.486" r="30.393"/>
<path style="fill:#EE4948;" d="M234.287,285.185c0,0,0.214-0.038,0.596-0.073c0.377-0.023,0.951-0.099,1.639-0.112
	c0.699-0.006,1.527-0.042,2.407-0.093c0.862-0.025,1.833-0.053,2.893-0.084c1.019-0.011,2.122-0.023,3.288-0.036
	c1.13,0.039,2.329-0.055,3.516,0.003c1.211-0.065,2.422,0.008,3.658-0.028c1.23,0.039,2.474-0.028,3.715,0.019
	c1.24-0.047,2.485,0.013,3.715-0.029c1.235,0.031,2.447-0.038,3.656,0.023c1.188-0.057,2.386,0.036,3.515-0.004
	c1.166,0.014,2.269,0.026,3.288,0.038c1.054,0.047,2.033,0.052,2.927,0.074c0.922,0.042,1.725,0.077,2.386,0.107
	c0.673,0.021,1.245,0.101,1.625,0.123c0.385,0.035,0.603,0.073,0.603,0.073s-0.099,0.189-0.311,0.509
	c-0.216,0.308-0.518,0.805-0.959,1.359c-0.426,0.582-0.994,1.21-1.691,1.881c-0.343,0.347-0.73,0.681-1.133,1.054
	c-0.409,0.36-0.871,0.672-1.344,1.037c-0.479,0.347-0.989,0.697-1.527,1.043c-0.545,0.326-1.125,0.625-1.721,0.955
	c-1.195,0.653-2.529,1.141-3.921,1.643c-1.406,0.43-2.887,0.848-4.423,1.053c-1.531,0.276-3.11,0.331-4.685,0.384
	c-1.576-0.053-3.154-0.116-4.683-0.394c-1.536-0.209-3.017-0.623-4.422-1.058c-1.394-0.501-2.726-0.991-3.92-1.644
	c-0.596-0.33-1.177-0.624-1.721-0.954c-0.538-0.346-1.049-0.691-1.527-1.042c-0.476-0.365-0.931-0.672-1.347-1.037
	c-0.416-0.377-0.813-0.712-1.162-1.064c-0.721-0.679-1.271-1.299-1.671-1.867c-0.424-0.543-0.725-1.038-0.943-1.346
	C234.392,285.375,234.287,285.185,234.287,285.185z"/>
<g>
	<path style="fill:#8C6239;" d="M291.846,261.097c0,0,0.235,0.033,0.677,0.093c0.408,0.063,0.956,0.166,1.644,0.311
		c1.365,0.296,3.251,0.757,5.438,1.476c4.365,1.414,10.014,3.888,14.827,7.576c1.206,0.904,2.35,1.892,3.412,2.912
		c1.067,1.016,2.033,2.097,2.915,3.165c0.418,0.551,0.828,1.093,1.229,1.624c0.364,0.551,0.72,1.091,1.067,1.617
		c0.642,1.081,1.21,2.105,1.654,3.088c0.477,0.961,0.795,1.897,1.108,2.692c0.257,0.827,0.503,1.526,0.654,2.118
		c0.286,1.182,0.448,1.858,0.448,1.858s-0.36-0.587-0.991-1.615c-0.32-0.506-0.765-1.087-1.238-1.759
		c-0.528-0.639-1.078-1.38-1.781-2.097c-0.671-0.74-1.463-1.473-2.306-2.215c-0.438-0.35-0.888-0.708-1.349-1.074
		c-0.479-0.333-0.969-0.673-1.466-1.019c-1.023-0.647-2.092-1.268-3.223-1.806c-1.127-0.543-2.291-1.032-3.487-1.435
		c-4.76-1.671-9.803-2.144-13.497-2.129c-1.85-0.001-3.371,0.122-4.392,0.231c-0.506,0.059-0.896,0.113-1.128,0.157
		c-0.136,0.02-0.181,0.039-0.209,0.052c-0.025,0.011-0.109,0.019-0.097,0.019c-3.82-0.025-6.899-3.142-6.875-6.963
		C284.905,264.153,288.025,261.072,291.846,261.097z"/>
	<path style="fill:#8C6239;" d="M220.261,274.934c0.013,0-0.072-0.006-0.097-0.019c-0.028-0.013-0.074-0.031-0.209-0.052
		c-0.233-0.044-0.623-0.098-1.128-0.157c-1.02-0.109-2.54-0.233-4.392-0.231c-3.692-0.014-8.737,0.459-13.497,2.129
		c-1.195,0.404-2.36,0.893-3.487,1.435c-1.131,0.538-2.199,1.16-3.223,1.806c-0.498,0.346-0.988,0.687-1.466,1.019
		c-0.46,0.366-0.911,0.726-1.349,1.074c-0.843,0.741-1.634,1.474-2.306,2.215c-0.704,0.717-1.253,1.458-1.783,2.097
		c-0.472,0.671-0.917,1.253-1.238,1.759c-0.63,1.028-0.991,1.615-0.991,1.615s0.164-0.676,0.448-1.858
		c0.152-0.594,0.398-1.292,0.654-2.118c0.313-0.795,0.632-1.732,1.108-2.692c0.443-0.984,1.011-2.008,1.654-3.088
		c0.347-0.525,0.703-1.064,1.067-1.617c0.401-0.531,0.813-1.073,1.229-1.624c0.882-1.068,1.848-2.149,2.915-3.165
		c1.063-1.021,2.206-2.009,3.412-2.912c4.813-3.687,10.461-6.162,14.827-7.576c2.188-0.718,4.073-1.181,5.438-1.476
		c0.687-0.143,1.237-0.247,1.644-0.311c0.442-0.06,0.677-0.093,0.677-0.093c3.82-0.025,6.939,3.053,6.963,6.875
		C227.159,271.793,224.081,274.91,220.261,274.934z"/>
	<path style="fill:#8C6239;" d="M265.444,322.537l-9.435,55.378l-9.435-55.378c-0.888-5.211,2.617-10.154,7.827-11.043
		c5.211-0.888,10.154,2.617,11.043,7.827C265.627,320.404,265.614,321.512,265.444,322.537z"/>
</g>
<g>
	<path style="fill:#4D4D4D;" d="M217.392,222.589c-0.559,0-1.127-0.083-1.688-0.259c-12.113-3.779-24.919-3.78-37.035,0
		c-2.985,0.93-6.159-0.733-7.09-3.717c-0.931-2.985,0.733-6.159,3.719-7.09c14.321-4.47,29.458-4.47,43.779,0
		c2.985,0.931,4.65,4.106,3.719,7.09C222.038,221.036,219.803,222.589,217.392,222.589z"/>
	<path style="fill:#4D4D4D;" d="M335.024,222.589c-0.557,0-1.127-0.083-1.688-0.259c-12.113-3.78-24.922-3.78-37.034,0
		c-2.988,0.932-6.159-0.733-7.091-3.717c-0.931-2.985,0.733-6.159,3.717-7.09c14.322-4.468,29.46-4.468,43.782,0
		c2.984,0.931,4.648,4.106,3.717,7.09C339.67,221.036,337.434,222.589,335.024,222.589z"/>
</g>
<path style="fill:#E2D0BF;" d="M274.011,234.769h-22.304c-4.346,0-7.87-3.524-7.87-7.87v-65.934c0-2.963-4.385-3.127-4.608-0.174
	l-6.152,81.73L274.011,234.769z"/>
<g>
</g>
<g>
</g>
<g>
</g>
<g>
</g>
<g>
</g>
<g>
</g>
<g>
</g>
<g>
</g>
<g>
</g>
<g>
</g>
<g>
</g>
<g>
</g>
<g>
</g>
<g>
</g>
<g>
</g>
</svg>
