<?xml version="1.0" encoding="iso-8859-1"?>
<!-- Generator: Adobe Illustrator 19.0.0, SVG Export Plug-In . SVG Version: 6.00 Build 0)  -->
<svg version="1.1" id="Layer_1" xmlns="http://www.w3.org/2000/svg" xmlns:xlink="http://www.w3.org/1999/xlink" x="0px" y="0px"
	 viewBox="0 0 511.999 511.999" style="enable-background:new 0 0 511.999 511.999;" xml:space="preserve">
<path style="fill:#F7AFD4;" d="M346.608,192.143c-27.784-77.685-90.267-133.359-90.267-133.359s-62.681,55.848-90.4,133.725
	c19.384,13.146,37.549,29.375,52.247,49.391c20.313,27.661,31.733,59.522,37.812,90.437c6.079-30.915,17.499-62.776,37.812-90.437
	C308.648,221.696,327.019,205.354,346.608,192.143z"/>
<path style="fill:#F58FBF;" d="M293.812,202.906c-20.313,25.129-31.733,54.074-37.812,82.158
	c-6.079-28.085-17.499-57.029-37.812-82.158c-11.791-14.588-25.817-26.956-40.91-37.446c-4.17,8.661-8.008,17.694-11.337,27.049
	c19.384,13.146,37.549,29.375,52.247,49.391c20.313,27.662,31.733,59.522,37.812,90.437c6.079-30.915,17.499-62.776,37.812-90.437
	c14.837-20.205,33.207-36.546,52.796-49.757c-3.345-9.351-7.195-18.379-11.375-27.033
	C319.945,175.674,305.736,188.155,293.812,202.906z"/>
<path style="fill:#FF3502;" d="M404.154,416.199H261.757h-0.003H107.835H52.236v24.367c0,33.446,27.114,60.56,60.56,60.56h287.061
	c33.446,0,60.56-27.114,60.56-60.56v-24.367H404.154z"/>
<path style="fill:#FECE00;" d="M291.438,245.254c-11.35-29.798-35.097-50.959-35.097-50.959s-24.083,21.455-35.336,51.584
	c18.551,26.717,29.205,57.013,34.996,86.458C261.835,302.661,272.616,272.123,291.438,245.254z"/>
<g>
	<path style="fill:#F7AFD4;" d="M460.371,364.214c66.613-90.709,37.815-226.055,37.815-226.055s-83.223,7.883-151.578,53.985
		c-19.588,13.211-37.958,29.553-52.796,49.757c-0.814,1.108-1.589,2.233-2.374,3.354c-18.822,26.869-29.602,57.407-35.437,87.084
		c0.212,1.079,0.418,2.157,0.617,3.234c0.065,0.352,0.126,0.703,0.19,1.055c0.131,0.722,0.263,1.446,0.388,2.167
		c0.074,0.425,0.143,0.848,0.215,1.273c0.11,0.649,0.222,1.3,0.327,1.948c0.072,0.445,0.14,0.889,0.211,1.334
		c0.099,0.624,0.199,1.248,0.294,1.87c0.071,0.465,0.137,0.929,0.206,1.393c0.088,0.599,0.178,1.199,0.263,1.797
		c0.067,0.473,0.131,0.946,0.196,1.418c0.081,0.589,0.163,1.179,0.24,1.767c0.062,0.468,0.12,0.936,0.18,1.403
		c0.031,0.244,0.061,0.487,0.091,0.731c0.044,0.345,0.088,0.692,0.13,1.036c0.058,0.471,0.112,0.941,0.167,1.411
		c0.068,0.578,0.136,1.155,0.2,1.731c0.053,0.475,0.104,0.948,0.155,1.423c0.062,0.573,0.124,1.147,0.183,1.718
		c0.048,0.465,0.093,0.929,0.139,1.393c0.057,0.577,0.114,1.153,0.168,1.728c0.043,0.459,0.084,0.917,0.125,1.375
		c0.052,0.576,0.103,1.152,0.151,1.725c0.039,0.453,0.075,0.904,0.112,1.355c0.047,0.576,0.092,1.15,0.135,1.724
		c0.034,0.446,0.066,0.89,0.099,1.335c0.042,0.576,0.081,1.15,0.12,1.723c0.029,0.439,0.058,0.877,0.085,1.314
		c0.037,0.576,0.072,1.15,0.106,1.723c0.025,0.428,0.05,0.855,0.073,1.281c0.033,0.58,0.062,1.157,0.091,1.734
		c0.021,0.419,0.042,0.837,0.062,1.255c0.027,0.579,0.053,1.155,0.077,1.731c0.017,0.407,0.035,0.815,0.051,1.22
		c0.023,0.586,0.044,1.169,0.064,1.752c0.013,0.393,0.027,0.786,0.04,1.179c0.018,0.592,0.035,1.181,0.051,1.769
		c0.01,0.374,0.02,0.748,0.029,1.121c0.014,0.606,0.026,1.208,0.038,1.81c0.007,0.354,0.014,0.707,0.019,1.059
		c0.01,0.611,0.017,1.217,0.024,1.823c0.004,0.339,0.008,0.68,0.011,1.017c0.006,0.628,0.009,1.251,0.011,1.874
		c0.001,0.307,0.003,0.616,0.004,0.922c0.001,0.654,0,1.305-0.002,1.953c-0.001,0.269-0.001,0.541-0.002,0.81
		c-0.003,0.692-0.01,1.378-0.017,2.064c-0.002,0.223-0.004,0.447-0.006,0.669c-0.009,0.735-0.02,1.463-0.034,2.19
		c-0.003,0.169-0.005,0.339-0.008,0.507c-0.016,0.862-0.035,1.716-0.056,2.566c-0.001,0.026-0.001,0.053-0.002,0.078
		c-0.064,2.518-0.151,4.974-0.256,7.376h142.397C425.033,402.607,444.69,385.567,460.371,364.214z"/>
	<path style="fill:#F7AFD4;" d="M259.417,353.727c0.001-0.001,0.001-0.001,0.002-0.002c-0.03-0.244-0.061-0.487-0.091-0.731
		c-0.06-0.467-0.118-0.935-0.18-1.403c-0.077-0.588-0.16-1.178-0.24-1.767c-0.037-0.268-0.074-0.535-0.111-0.804
		c-0.028-0.205-0.056-0.409-0.085-0.615c-0.084-0.592-0.173-1.187-0.26-1.78c-0.069-0.47-0.137-0.941-0.209-1.411
		c-0.095-0.621-0.194-1.244-0.294-1.867c-0.07-0.445-0.138-0.888-0.211-1.334c-0.106-0.648-0.217-1.298-0.327-1.948
		c-0.072-0.425-0.141-0.847-0.215-1.273c-0.125-0.721-0.257-1.445-0.388-2.167c-0.064-0.352-0.124-0.702-0.19-1.055
		c-0.199-1.077-0.404-2.155-0.617-3.234c-5.791-29.446-16.444-59.743-34.995-86.458c-0.926-1.332-1.851-2.664-2.817-3.979
		c-14.698-20.017-32.864-36.245-52.247-49.391c-68.457-46.429-152.127-54.351-152.127-54.351s-28.797,135.348,37.815,226.055
		c15.678,21.35,35.33,38.395,56.207,51.985h153.918C262.54,398.075,262.268,376.515,259.417,353.727z"/>
</g>
<g>
	<path style="fill:#F58FBF;" d="M422.261,381.223H259.562c0.015,0.085,0.031,0.171,0.046,0.256c0.049,0.283,0.095,0.565,0.143,0.847
		c0.057,0.341,0.114,0.683,0.168,1.023c0.044,0.277,0.086,0.553,0.128,0.829c0.053,0.343,0.105,0.687,0.154,1.029
		c0.04,0.273,0.077,0.546,0.115,0.819c0.048,0.343,0.094,0.686,0.139,1.028c0.036,0.269,0.069,0.539,0.103,0.808
		c0.043,0.342,0.084,0.685,0.125,1.026c0.031,0.265,0.061,0.53,0.09,0.796c0.039,0.342,0.075,0.685,0.111,1.026
		c0.027,0.261,0.054,0.522,0.079,0.782c0.034,0.343,0.066,0.685,0.098,1.026c0.023,0.255,0.046,0.509,0.067,0.763
		c0.029,0.345,0.058,0.69,0.084,1.033c0.019,0.25,0.039,0.499,0.057,0.748c0.025,0.344,0.049,0.688,0.071,1.031
		c0.016,0.243,0.032,0.486,0.047,0.726c0.021,0.349,0.041,0.696,0.059,1.044c0.012,0.235,0.025,0.468,0.037,0.702
		c0.017,0.353,0.033,0.703,0.047,1.054c0.009,0.223,0.018,0.445,0.026,0.668c0.013,0.361,0.024,0.719,0.035,1.078
		c0.006,0.21,0.013,0.421,0.018,0.63c0.009,0.364,0.016,0.724,0.022,1.085c0.004,0.202,0.008,0.404,0.011,0.606
		c0.005,0.374,0.008,0.745,0.01,1.116c0.001,0.183,0.003,0.367,0.004,0.549c0.001,0.39,0,0.777-0.002,1.163
		c-0.001,0.161-0.001,0.322-0.002,0.483c-0.003,0.413-0.009,0.821-0.015,1.228c-0.002,0.132-0.003,0.266-0.006,0.398
		c-0.008,0.438-0.018,0.872-0.03,1.305c-0.003,0.101-0.004,0.202-0.007,0.302c-0.015,0.513-0.033,1.022-0.052,1.528
		c-0.001,0.015-0.001,0.031-0.002,0.047c-0.059,1.5-0.139,2.962-0.236,4.393h142.85c19.234-8.095,25.671-18.245,40.118-30.962
		c7.115-6.264,13.031-12.888,17.959-19.701C462.23,365.537,450.224,381.223,422.261,381.223z"/>
	<path style="fill:#F58FBF;" d="M93.599,381.223c-25.311,0-43.83-15.686-43.83-15.686c4.928,6.812,10.845,13.437,17.959,19.701
		c14.443,12.715,20.874,22.868,40.106,30.962h153.465c0.685-10.201,0.495-22.23-1.745-34.976H93.599z"/>
</g>
<g>
	<path style="fill:#FFFFFF;" d="M193.603,208.517l-14.36-5.106c7.843-22.059,19.438-44.367,34.463-66.306l12.575,8.613
		C212,166.569,201.005,187.698,193.603,208.517z"/>
	<path style="fill:#FFFFFF;" d="M320.38,204.045c-5.585-12.964-12.693-26.113-21.127-39.082l12.776-8.309
		c8.904,13.691,16.423,27.607,22.347,41.362L320.38,204.045z"/>
	<path style="fill:#FFFFFF;" d="M60.379,345.814c-15.321-22.457-25.453-50.015-30.11-81.907l15.082-2.203
		c4.32,29.583,13.613,54.992,27.619,75.521L60.379,345.814z"/>
	<path style="fill:#FFFFFF;" d="M28.231,245.51c-0.775-10.076-1.035-20.533-0.774-31.077l15.236,0.377
		c-0.249,10.031-0.001,19.966,0.735,29.53L28.231,245.51z"/>
	<path style="fill:#FFFFFF;" d="M429.551,371.446l-10.637-10.917c6.162-6.004,11.745-12.436,16.588-19.115
		c12.423-17.131,21.551-37.921,27.128-61.791l14.842,3.469c-6.042,25.855-16.012,48.489-29.633,67.271
		C442.487,357.743,436.335,364.836,429.551,371.446z"/>
	<path style="fill:#FFFFFF;" d="M401.03,394.233l-8.389-12.724c6.22-4.101,12.113-8.489,17.513-13.045l9.827,11.651
		C414.125,385.054,407.75,389.804,401.03,394.233z"/>
	<path style="fill:#FFFFFF;" d="M314.497,276.781l-13.558-6.962c3.172-6.177,6.727-12.106,10.568-17.623l0.36-0.519
		c0.496-0.713,0.993-1.428,1.506-2.134c10.709-14.672,24.588-27.843,41.254-39.151c10.23-6.944,21.645-13.268,33.928-18.795
		l6.255,13.898c-11.481,5.168-22.121,11.059-31.624,17.509c-15.213,10.321-27.828,22.273-37.499,35.523
		c-0.443,0.607-0.87,1.224-1.299,1.842l-0.373,0.538C320.562,265.867,317.359,271.208,314.497,276.781z"/>
	<path style="fill:#FFFFFF;" d="M416.91,196.78l-4.947-14.416c18.579-6.376,35.098-9.93,45.684-11.788l2.636,15.01
		C450.234,187.351,434.553,190.725,416.91,196.78z"/>
	<path style="fill:#FFFFFF;" d="M150.793,227.431c-26.795-20.935-57.806-33.189-79.104-39.78l4.507-14.56
		c22.517,6.97,55.365,19.972,83.98,42.331L150.793,227.431z"/>
	<path style="fill:#FFFFFF;" d="M217.932,327.63c-4.703-23.738-13.059-44.373-24.833-61.329l-0.536-0.771l12.483-8.743l0.578,0.831
		c12.971,18.68,22.144,41.242,27.258,67.049L217.932,327.63z"/>
	<path style="fill:#FFFFFF;" d="M232.979,136.293l-12.267-9.045c4.642-6.297,9.503-12.448,14.447-18.281l11.628,9.853
		C242.065,124.393,237.42,130.272,232.979,136.293z"/>
</g>
<path d="M263.961,32.539h-15.242V3.252h15.242V32.539z M406.789,68.726L396.012,57.95l-20.709,20.71l10.777,10.775L406.789,68.726z
	 M137.377,78.659l-20.709-20.71l-10.777,10.777l20.709,20.71L137.377,78.659z M427.754,408.579h40.283v31.988
	c0,37.595-30.586,68.18-68.18,68.18H112.796c-37.595,0-68.18-30.586-68.18-68.18v-31.988h39.623
	c-15.144-12.056-28.134-25.396-38.751-39.854C9.905,320.274,1.179,259.67,0.123,217.361c-1.136-45.549,5.935-79.371,6.237-80.789
	l1.413-6.641l6.759,0.64c3.361,0.319,80.137,8.024,147.623,50.379c29.34-74.017,86.598-125.613,89.115-127.856l5.069-4.516
	l5.07,4.516c2.511,2.236,59.596,53.681,88.978,127.52c67.359-42.059,143.735-49.725,147.078-50.042l6.759-0.64l1.413,6.641
	c0.302,1.417,7.374,35.239,6.237,80.789c-1.056,42.309-9.783,102.913-45.363,151.364
	C455.897,383.179,442.905,396.52,427.754,408.579z M175.13,189.619c0.634,0.452,1.257,0.912,1.885,1.37
	c0.493,0.359,0.991,0.714,1.48,1.075c0.872,0.643,1.73,1.294,2.589,1.946c0.381,0.29,0.768,0.575,1.147,0.866
	c1.232,0.947,2.452,1.901,3.656,2.864c0.149,0.119,0.294,0.241,0.443,0.361c1.054,0.846,2.099,1.698,3.132,2.557
	c0.4,0.333,0.792,0.672,1.189,1.007c0.77,0.65,1.54,1.3,2.298,1.957c0.455,0.394,0.902,0.795,1.353,1.192
	c0.689,0.607,1.379,1.214,2.058,1.827c0.469,0.424,0.932,0.851,1.396,1.278c0.645,0.592,1.29,1.186,1.926,1.783
	c0.472,0.444,0.939,0.891,1.406,1.338c0.617,0.59,1.231,1.183,1.84,1.778c0.465,0.455,0.926,0.913,1.385,1.372
	c0.596,0.595,1.189,1.192,1.776,1.792c0.455,0.465,0.907,0.932,1.357,1.4c0.579,0.604,1.153,1.209,1.724,1.818
	c0.44,0.469,0.879,0.939,1.314,1.411c0.569,0.618,1.13,1.24,1.689,1.861c0.422,0.47,0.845,0.94,1.262,1.412
	c0.563,0.639,1.117,1.282,1.67,1.926c0.396,0.461,0.796,0.922,1.186,1.385c0.571,0.678,1.132,1.361,1.692,2.043
	c0.36,0.438,0.723,0.874,1.078,1.314c0.084,0.105,0.171,0.207,0.254,0.311c12.605-24.827,31.055-41.457,31.954-42.257l5.07-4.516
	l5.069,4.516c0.886,0.79,19.089,17.198,31.688,41.743c0.322-0.398,0.655-0.792,0.98-1.189c0.562-0.685,1.125-1.37,1.698-2.048
	c0.395-0.468,0.8-0.934,1.2-1.399c0.559-0.65,1.119-1.3,1.688-1.945c0.417-0.472,0.84-0.942,1.263-1.411
	c0.57-0.633,1.142-1.266,1.721-1.894c0.432-0.468,0.869-0.934,1.306-1.399c0.585-0.623,1.175-1.244,1.77-1.862
	c0.444-0.461,0.891-0.921,1.341-1.379c0.605-0.616,1.214-1.229,1.828-1.84c0.453-0.451,0.908-0.902,1.368-1.35
	c0.629-0.615,1.265-1.225,1.903-1.834c0.456-0.435,0.911-0.87,1.373-1.303c0.664-0.622,1.335-1.239,2.009-1.854
	c0.45-0.412,0.898-0.825,1.353-1.234c0.712-0.641,1.436-1.276,2.16-1.91c0.429-0.376,0.854-0.754,1.286-1.128
	c0.802-0.692,1.616-1.377,2.43-2.061c0.369-0.309,0.731-0.622,1.102-0.93c1.121-0.93,2.255-1.85,3.401-2.765
	c0.07-0.056,0.137-0.113,0.207-0.169c1.233-0.981,2.479-1.953,3.739-2.916c0.301-0.23,0.609-0.455,0.91-0.684
	c0.951-0.719,1.904-1.438,2.871-2.148c0.45-0.33,0.907-0.655,1.361-0.984c0.678-0.491,1.35-0.986,2.036-1.472
	c-22.889-59.571-66.279-105.455-81.06-119.952C241.535,83.831,197.953,129.95,175.13,189.619z M282.832,244.293
	c-7.603-17.785-19.691-32.078-26.492-39.264c-6.878,7.267-19.173,21.815-26.759,39.892c8.265,12.46,15.29,26.172,21.049,41.038
	c0.02,0.052,0.041,0.104,0.06,0.155c0.942,2.437,1.851,4.902,2.725,7.399c0.02,0.059,0.041,0.119,0.062,0.179
	c0.017,0.049,0.034,0.099,0.051,0.148c0.057,0.163,0.112,0.326,0.169,0.489c0.59,1.709,1.166,3.431,1.725,5.169
	c0.069,0.214,0.139,0.428,0.208,0.643c0.122,0.383,0.251,0.762,0.371,1.146c0.147-0.469,0.303-0.931,0.452-1.398
	c0.062-0.193,0.125-0.385,0.187-0.578c0.599-1.859,1.216-3.704,1.853-5.53c0.009-0.025,0.017-0.051,0.026-0.077
	C264.841,275.572,272.963,259.049,282.832,244.293z M110.115,408.579H254.39c0.167-6.601,0.159-13.138-0.007-19.599l-0.447-10.882
	c-0.381-6.88-0.956-13.654-1.722-20.302l-0.622-5.198c-0.076-0.582-0.155-1.156-0.235-1.73l-1.669-10.758
	c-0.11-0.637-0.224-1.261-0.336-1.884l-0.228-1.26c-0.195-1.057-0.395-2.105-0.602-3.156c-0.408-2.075-0.838-4.131-1.287-6.171
	c-0.178-0.808-0.372-1.601-0.556-2.403c-0.279-1.216-0.555-2.436-0.848-3.639c-0.245-1.001-0.506-1.986-0.761-2.979
	c-0.252-0.98-0.498-1.965-0.759-2.936c-0.298-1.106-0.612-2.199-0.923-3.294c-0.236-0.831-0.466-1.666-0.709-2.49
	c-0.349-1.181-0.712-2.348-1.076-3.516c-0.223-0.716-0.442-1.435-0.671-2.146c-0.397-1.237-0.81-2.46-1.224-3.68
	c-0.21-0.618-0.418-1.239-0.631-1.852c-0.448-1.282-0.908-2.552-1.376-3.816c-0.196-0.531-0.39-1.064-0.589-1.592
	c-0.499-1.321-1.01-2.63-1.53-3.93c-0.18-0.451-0.36-0.902-0.543-1.35c-0.552-1.354-1.116-2.699-1.691-4.032
	c-0.162-0.374-0.323-0.748-0.486-1.12c-0.607-1.386-1.225-2.761-1.857-4.122c-0.139-0.301-0.279-0.599-0.421-0.899
	c-0.667-1.418-1.344-2.825-2.038-4.217c-0.11-0.22-0.222-0.44-0.332-0.659c-0.732-1.455-1.476-2.898-2.237-4.323
	c-0.072-0.135-0.146-0.269-0.218-0.404c-0.807-1.501-1.627-2.987-2.466-4.454c-0.018-0.032-0.037-0.062-0.054-0.094
	c-2.667-4.659-5.5-9.149-8.496-13.464c-0.187-0.269-0.375-0.538-0.563-0.806c-0.706-1.005-1.407-2.014-2.131-2.999
	c-0.003-0.003-0.005-0.007-0.007-0.01c-0.14-0.191-0.288-0.378-0.428-0.569c-0.679-0.916-1.361-1.83-2.061-2.737
	c-10.139-13.145-22.467-25.299-36.785-36.278c-3.58-2.744-7.283-5.416-11.109-8.01c-54.862-37.208-120.474-49.163-141.635-52.191
	c-1.966,12-5.493,38.569-4.659,70.729c1.038,40.013,9.237,97.189,42.402,142.35C71.206,377.998,88.808,394.433,110.115,408.579z
	 M451.29,453.075H61.362c5.636,23.172,26.552,40.431,51.433,40.431h287.061C424.738,493.506,445.653,476.246,451.29,453.075z
	 M452.796,423.82H59.856v14.014h392.94V423.82z M454.229,359.703c33.165-45.16,41.363-102.338,42.401-142.35
	c0.834-32.155-2.691-58.72-4.658-70.724c-21.109,3.036-86.444,14.967-141.104,51.832c-20.642,13.922-37.773,30.055-50.914,47.949
	c-0.597,0.814-1.173,1.64-1.749,2.465l-0.183,0.261l-0.342,0.49c-0.448,0.64-0.88,1.299-1.321,1.946
	c-0.55,0.807-1.107,1.606-1.645,2.425c-0.447,0.681-0.878,1.379-1.317,2.068c-0.517,0.811-1.043,1.613-1.548,2.434
	c-0.436,0.707-0.855,1.432-1.282,2.147c-0.492,0.822-0.991,1.638-1.472,2.471c-0.419,0.725-0.821,1.468-1.232,2.203
	c-0.471,0.842-0.95,1.678-1.41,2.53c-0.404,0.748-0.792,1.512-1.188,2.269c-0.448,0.857-0.903,1.707-1.341,2.574
	c-0.389,0.771-0.763,1.558-1.144,2.337c-0.426,0.872-0.859,1.737-1.274,2.619c-0.37,0.785-0.724,1.586-1.086,2.38
	c-0.407,0.894-0.821,1.783-1.218,2.688c-0.353,0.804-0.69,1.622-1.034,2.433c-0.387,0.912-0.779,1.819-1.156,2.741
	c-0.337,0.826-0.658,1.665-0.988,2.5c-0.365,0.926-0.735,1.847-1.089,2.783c-0.32,0.845-0.625,1.704-0.937,2.557
	c-0.344,0.943-0.693,1.882-1.026,2.835c-0.302,0.862-0.588,1.735-0.881,2.605c-0.324,0.962-0.652,1.92-0.966,2.893
	c-0.282,0.876-0.551,1.765-0.825,2.648c-0.305,0.984-0.614,1.964-0.908,2.958c-0.263,0.888-0.512,1.788-0.767,2.683
	c-0.286,1.006-0.575,2.009-0.849,3.025c-0.215,0.797-0.419,1.603-0.627,2.405c-0.052,0.2-0.104,0.4-0.155,0.601
	c-0.241,0.933-0.486,1.862-0.717,2.803c-0.185,0.752-0.359,1.514-0.537,2.271c-0.133,0.564-0.265,1.129-0.395,1.695
	c-0.149,0.65-0.306,1.293-0.451,1.947c-0.177,0.798-0.342,1.604-0.514,2.408c-0.204,0.958-0.406,1.917-0.602,2.884
	c0.115,0.598,0.227,1.196,0.337,1.794l0.237,1.318c0.12,0.663,0.241,1.326,0.356,1.987l1.755,11.305
	c0.081,0.591,0.165,1.197,0.244,1.799l0.277,2.177l-0.001,0.007c0.112,0.89,0.201,1.794,0.306,2.689l0.364,3.047
	c0.064,0.573,0.126,1.164,0.187,1.752l0.442,4.599c0.053,0.585,0.106,1.178,0.154,1.77l0.102,1.301
	c0.018,0.229,0.036,0.458,0.054,0.688l0.196,2.512c0.043,0.584,0.084,1.176,0.123,1.764l0.075,1.409
	c0.151,2.386,0.276,4.785,0.383,7.194l0.099,1.861l0.018,0.587c0.004,0.104,0.006,0.208,0.01,0.311l0.159,5.036
	c0.015,0.618,0.026,1.237,0.039,1.854l0.012,0.82c0.001,0.06,0.002,0.12,0.003,0.18l0.043,2.969
	c0.006,0.639,0.009,1.278,0.011,1.916l0.004,0.947c0.002,0.647,0,1.312-0.002,1.976l-0.002,0.842
	c-0.003,0.684-0.01,1.384-0.017,2.085l-0.006,0.659c-0.01,0.773-0.021,1.516-0.035,2.257l-0.008,0.507
	c-0.014,0.762-0.03,1.516-0.049,2.265h132.232C423.192,394.427,440.798,377.991,454.229,359.703z"/>
<g>
</g>
<g>
</g>
<g>
</g>
<g>
</g>
<g>
</g>
<g>
</g>
<g>
</g>
<g>
</g>
<g>
</g>
<g>
</g>
<g>
</g>
<g>
</g>
<g>
</g>
<g>
</g>
<g>
</g>
</svg>
