<?xml version="1.0" encoding="iso-8859-1"?>
<!-- Generator: Adobe Illustrator 19.0.0, SVG Export Plug-In . SVG Version: 6.00 Build 0)  -->
<svg version="1.1" id="Layer_1" xmlns="http://www.w3.org/2000/svg" xmlns:xlink="http://www.w3.org/1999/xlink" x="0px" y="0px"
	 viewBox="0 0 512 512" style="enable-background:new 0 0 512 512;" xml:space="preserve">
<g>
	<polygon style="fill:#B39A7C;" points="305.862,165.649 351.098,16.569 327.657,9.456 280.261,165.649 	"/>
	<polygon style="fill:#B39A7C;" points="358.252,165.649 416.427,34.23 394.027,24.313 331.463,165.649 	"/>
</g>
<polygon style="fill:#CD2A01;" points="118.536,297.516 144.575,504.418 366.823,504.418 392.862,297.516 "/>
<polygon style="fill:#DDB201;" points="397.306,262.202 114.091,262.202 118.536,297.516 392.862,297.516 "/>
<polygon style="fill:#FF3502;" points="146.143,297.516 166.941,504.418 344.457,504.418 365.255,297.516 "/>
<polygon style="fill:#FECE00;" points="368.804,262.202 142.593,262.202 146.143,297.516 365.255,297.516 "/>
<path style="fill:#CD2A01;" d="M361.043,165.591H150.355l-36.194,96.425c-0.033,0.09,0.032,0.186,0.129,0.186h282.818
	c0.096,0,0.163-0.096,0.129-0.186L361.043,165.591z"/>
<circle style="fill:#FECE00;" cx="255.704" cy="401.812" r="66.488"/>
<path style="fill:#FF3502;" d="M338.726,165.591H172.672l-31.242,96.425c-0.027,0.09,0.026,0.186,0.104,0.186h228.33
	c0.078,0,0.131-0.096,0.104-0.186L338.726,165.591z"/>
<rect x="397.342" y="433.606" transform="matrix(0.0029 1 -1 0.0029 845.0422 35.092)" width="15.164" height="15.377"/>
<rect x="466.118" y="363.135" transform="matrix(-1 0.0029 -0.0029 -1 948.6856 740.0594)" width="15.377" height="15.164"/>
<rect x="61.921" y="375.604" transform="matrix(0.0029 1 -1 0.0029 452.5922 312.678)" width="15.164" height="15.377"/>
<rect x="426.778" y="125.922" transform="matrix(-0.0029 -1 1 -0.0029 302.0103 568.3568)" width="15.164" height="15.377"/>
<rect x="98.815" y="54.017" transform="matrix(-0.0029 -1 1 -0.0029 45.0007 168.2812)" width="15.164" height="15.377"/>
<rect x="30.612" y="157.9" transform="matrix(0.0029 1 -1 0.0029 203.6709 126.9149)" width="15.164" height="15.377"/>
<path d="M255.699,327.747c-40.842,0-74.07,33.228-74.07,74.07s33.228,74.07,74.07,74.07s74.07-33.228,74.07-74.07
	S296.542,327.747,255.699,327.747z M255.699,460.723c-32.481,0-58.906-26.425-58.906-58.906s26.425-58.906,58.906-58.906
	s58.906,26.425,58.906,58.906S288.18,460.723,255.699,460.723z"/>
<path d="M399.213,245.707l-31.251-83.26l58.467-132.082l-36.267-16.054l-63.609,143.698h-10.45l44.452-146.493L322.603,0
	l-47.946,158.009H145.102l-32.834,87.473l-36.222-61.675l-13.077,7.68l44.011,74.935L137.887,512H373.51l30.848-245.109
	l44.286-75.405l-13.077-7.68L399.213,245.707z M386.175,289.934H125.223l-2.535-20.149h266.024L386.175,289.934z M397.891,34.316
	l8.533,3.777l-53.081,119.916h-10.207L397.891,34.316z M332.711,18.914l8.931,2.71L300.256,158.01h-9.753L332.711,18.914z
	 M155.607,173.173h114.448l-0.017,0.059h41.447l0.017-0.059h8.338l-0.026,0.059h35.998l30.55,81.389H125.036L155.607,173.173z
	 M360.136,496.836H151.263l-24.131-191.738h257.134L360.136,496.836z"/>
<path d="M191.504,143.003h15.164c0-8.705,2.933-12.753,6.646-17.878c4.246-5.86,9.529-13.153,9.529-26.774
	c0-13.622-5.284-20.915-9.529-26.775c-3.713-5.125-6.646-9.172-6.646-17.878c0-8.703,2.933-12.75,6.645-17.874
	c4.246-5.859,9.53-13.152,9.53-26.772h-15.164c0,8.703-2.933,12.75-6.645,17.875c-4.246,5.859-9.53,13.151-9.53,26.771
	c0,13.622,5.284,20.915,9.529,26.775c3.713,5.125,6.646,9.172,6.646,17.878s-2.933,12.753-6.645,17.878
	C196.787,122.088,191.504,129.381,191.504,143.003z"/>
<path d="M168.177,80.474c3.713,5.125,6.646,9.172,6.646,17.878c0,8.704-2.933,12.752-6.646,17.878
	c-0.459,0.633-0.918,1.267-1.371,1.908l12.38,8.758c0.421-0.594,0.845-1.182,1.271-1.769c4.246-5.86,9.53-13.153,9.53-26.774
	s-5.284-20.915-9.529-26.775c-3.713-5.125-6.646-9.172-6.646-17.878l-0.02-0.553c-0.008-0.113-0.593-11.557,7.845-19.797
	L171.042,22.5c-12.686,12.389-12.514,28.73-12.393,31.401C158.701,67.392,163.953,74.642,168.177,80.474z"/>
<path d="M233.993,76.864c3.713,5.125,6.646,9.172,6.646,17.878s-2.933,12.753-6.645,17.878c-0.459,0.634-0.918,1.267-1.371,1.909
	l12.38,8.757c0.421-0.594,0.846-1.181,1.271-1.769c4.246-5.86,9.529-13.153,9.529-26.774c0-13.622-5.284-20.915-9.529-26.775
	c-3.713-5.125-6.646-9.172-6.646-17.878l-0.02-0.553c-0.008-0.113-0.592-11.557,7.845-19.797L236.858,18.89
	c-12.686,12.388-12.514,28.73-12.393,31.401C224.517,63.782,229.768,71.031,233.993,76.864z"/>
<g>
</g>
<g>
</g>
<g>
</g>
<g>
</g>
<g>
</g>
<g>
</g>
<g>
</g>
<g>
</g>
<g>
</g>
<g>
</g>
<g>
</g>
<g>
</g>
<g>
</g>
<g>
</g>
<g>
</g>
</svg>
