<?xml version="1.0" encoding="iso-8859-1"?>
<!-- Generator: Adobe Illustrator 19.0.0, SVG Export Plug-In . SVG Version: 6.00 Build 0)  -->
<svg version="1.1" id="Layer_1" xmlns="http://www.w3.org/2000/svg" xmlns:xlink="http://www.w3.org/1999/xlink" x="0px" y="0px"
	 viewBox="0 0 512 512" style="enable-background:new 0 0 512 512;" xml:space="preserve">
<rect x="330.585" y="0.343" width="15.673" height="15.892"/>
<rect y="165.358" width="15.893" height="15.673"/>
<rect x="496.107" y="358.017" width="15.893" height="15.673"/>
<rect x="98.011" y="495.765" width="15.673" height="15.892"/>
<rect x="396.988" y="474.815" width="15.673" height="15.893"/>
<g>
	<path style="fill:#3E3D43;" d="M449.671,175.793c16.201-14.163,26.449-34.966,26.449-58.176c0-42.672-34.592-77.264-77.264-77.264
		c-27.502,0-51.63,14.381-65.323,36.021C376.273,93.671,421.856,125.524,449.671,175.793z"/>
	<path style="fill:#3E3D43;" d="M178.465,76.374c-13.692-21.64-37.82-36.021-65.323-36.021c-42.672,0-77.264,34.592-77.264,77.264
		c0,23.209,10.248,44.013,26.45,58.176C90.144,125.524,135.727,93.671,178.465,76.374z"/>
</g>
<path style="fill:#E0E0E2;" d="M449.671,175.793c-27.816-50.268-73.398-82.121-116.136-99.418
	C304.091,64.458,275.999,59.446,256,60.083c-19.999-0.636-48.091,4.376-77.535,16.292c-42.738,17.297-88.321,49.15-116.136,99.418
	c-18.181,32.857-28.774,73.578-26.015,123.249C46.954,490.55,186.126,471.832,256,471.832s209.046,18.718,219.686-172.791
	C478.445,249.37,467.853,208.649,449.671,175.793z"/>
<path style="fill:#C6C5CB;" d="M449.671,175.793c-27.816-50.268-73.398-82.121-116.136-99.418
	c-27.666-11.197-54.136-16.296-73.823-16.343c18.511,0.082,43.338,4.886,69.282,15.385c40.235,16.284,83.147,46.27,109.334,93.595
	c17.116,30.932,27.089,69.267,24.491,116.03C452.8,465.331,321.782,450.844,256,450.844S59.2,465.331,49.183,285.04
	c-2.598-46.761,7.375-85.098,24.491-116.03c26.186-47.323,69.098-77.31,109.334-93.595c25.943-10.5,50.771-15.304,69.282-15.385
	c-19.688,0.047-46.157,5.146-73.823,16.343c-42.738,17.297-88.321,49.15-116.136,99.418C44.15,208.648,33.557,249.369,36.316,299.04
	C46.954,490.55,186.126,471.832,256,471.832s209.046,18.718,219.686-172.791C478.445,249.37,467.853,208.649,449.671,175.793z"/>
<path style="fill:#FEF5CC;" d="M259.711,60.031c-1.266-0.005-2.506,0.009-3.711,0.048c-1.206-0.039-2.444-0.053-3.711-0.048
	c1.264-0.003,2.504,0.013,3.711,0.051C257.207,60.044,258.446,60.028,259.711,60.031z"/>
<g>
	<path style="fill:#3E3D43;" d="M200.806,230.16l-50.908,50.908c-15.086,15.086-39.547,15.086-54.634,0l0,0
		c-15.086-15.086-15.086-39.547,0-54.634l50.908-50.908c15.086-15.086,39.547-15.086,54.634,0l0,0
		C215.893,190.612,215.893,215.072,200.806,230.16z"/>
	<path style="fill:#3E3D43;" d="M311.746,230.16l50.909,50.908c15.086,15.086,39.547,15.086,54.634,0l0,0
		c15.086-15.086,15.086-39.547,0-54.634l-50.908-50.908c-15.086-15.086-39.547-15.086-54.634,0l0,0
		C296.66,190.612,296.66,215.072,311.746,230.16z"/>
</g>
<g>
	<path style="fill:#2E2E30;" d="M163.018,58.63c0.13,0.2,0.263,0.396,0.391,0.598C120.769,76.485,75.303,108.234,47.47,158.3
		c4.068,6.546,9.082,12.444,14.858,17.493c27.816-50.268,73.398-82.121,116.136-99.418C174.242,69.698,169.022,63.716,163.018,58.63
		z"/>
	<path style="fill:#2E2E30;" d="M348.982,58.63c-0.13,0.2-0.263,0.396-0.391,0.598c42.639,17.258,88.106,49.006,115.939,99.072
		c-4.068,6.546-9.082,12.444-14.858,17.493c-27.816-50.268-73.398-82.121-116.136-99.418
		C337.758,69.698,342.978,63.716,348.982,58.63z"/>
</g>
<path style="fill:#010101;" d="M238.827,366.8l-23.828-20.55c-8.423-7.265-4.13-20.042,7.38-21.892
	c10.532-1.693,22.699-3.135,33.584-3.135c11.176,0,23.234,1.401,33.602,3.063c11.537,1.848,15.878,14.62,7.436,21.901L273.1,366.801
	C263.534,375.05,248.394,375.05,238.827,366.8z"/>
<path d="M483.957,117.617c0-46.924-38.175-85.1-85.1-85.1c-27.157,0-52.215,12.715-68.256,34.308
	c-24.786-9.331-50.417-14.633-71.168-14.633c-1.169,0-2.311,0.017-3.434,0.05c-1.121-0.033-2.266-0.05-3.434-0.05
	c-20.751,0-46.383,5.302-71.168,14.633c-16.041-21.593-41.099-34.308-68.256-34.308c-46.924,0-85.1,38.175-85.1,85.1
	c0,22.441,8.884,43.888,24.559,59.768C34.094,213.25,25.978,254.287,28.49,299.476c2.154,38.75,9.729,71.612,22.518,97.672
	c11.423,23.274,27.331,41.822,47.287,55.128c37.078,24.723,82.931,27.894,118.736,27.894c7.607,0,14.815-0.138,21.785-0.273
	c6.101-0.117,11.864-0.228,17.185-0.228c5.321,0,11.084,0.111,17.186,0.228c6.972,0.134,14.18,0.273,21.784,0.273
	c0.002,0-0.001,0,0.002,0c35.806,0,81.661-3.171,118.734-27.888c19.955-13.305,35.864-31.853,47.287-55.128
	c12.789-26.06,20.364-58.923,22.518-97.676c2.511-45.188-5.604-86.225-24.113-122.091
	C475.073,161.505,483.957,140.057,483.957,117.617z M398.857,48.19c38.282,0,69.426,31.144,69.426,69.426
	c0,16.794-6.097,32.908-16.983,45.461c-0.252-0.406-0.512-0.798-0.766-1.202c-0.418-0.664-0.838-1.322-1.261-1.978
	c-0.665-1.031-1.336-2.051-2.012-3.062c-0.419-0.627-0.838-1.254-1.262-1.872c-0.728-1.063-1.465-2.109-2.206-3.148
	c-0.38-0.534-0.755-1.074-1.139-1.602c-0.978-1.346-1.966-2.671-2.963-3.98c-0.151-0.199-0.3-0.405-0.451-0.603
	c-1.156-1.506-2.326-2.983-3.506-4.44c-0.351-0.434-0.707-0.854-1.061-1.283c-0.837-1.017-1.675-2.026-2.522-3.019
	c-0.444-0.52-0.892-1.031-1.341-1.545c-0.77-0.885-1.542-1.764-2.321-2.629c-0.473-0.527-0.948-1.048-1.423-1.567
	c-0.776-0.847-1.556-1.684-2.339-2.513c-0.466-0.493-0.93-0.986-1.398-1.472c-0.84-0.874-1.684-1.73-2.531-2.583
	c-0.41-0.412-0.816-0.831-1.227-1.237c-1.132-1.122-2.267-2.225-3.407-3.309c-0.125-0.119-0.249-0.242-0.374-0.362
	c-1.272-1.204-2.547-2.381-3.827-3.54c-0.383-0.347-0.769-0.683-1.154-1.027c-0.899-0.802-1.796-1.599-2.698-2.379
	c-0.476-0.413-0.954-0.817-1.431-1.225c-0.818-0.697-1.636-1.388-2.456-2.068c-0.499-0.415-0.999-0.824-1.498-1.233
	c-0.812-0.662-1.623-1.314-2.436-1.96c-0.489-0.389-0.977-0.777-1.465-1.16c-0.866-0.677-1.731-1.341-2.597-1.999
	c-0.425-0.323-0.85-0.652-1.275-0.972c-1.172-0.88-2.343-1.743-3.512-2.589c-0.112-0.08-0.224-0.165-0.335-0.246
	c-1.282-0.925-2.56-1.825-3.835-2.709c-0.405-0.281-0.809-0.552-1.213-0.829c-0.871-0.597-1.742-1.189-2.609-1.767
	c-0.484-0.323-0.966-0.637-1.447-0.954c-0.79-0.519-1.579-1.033-2.365-1.537c-0.497-0.32-0.994-0.635-1.489-0.948
	c-0.777-0.491-1.551-0.974-2.322-1.449c-0.48-0.296-0.959-0.594-1.437-0.884c-0.82-0.498-1.633-0.985-2.446-1.467
	c-0.412-0.245-0.827-0.495-1.236-0.736c-1.117-0.655-2.227-1.295-3.327-1.918c-0.096-0.054-0.194-0.113-0.29-0.167
	c-1.192-0.674-2.373-1.327-3.543-1.965c-0.398-0.217-0.789-0.424-1.184-0.637c-0.776-0.418-1.55-0.833-2.315-1.236
	c-0.456-0.239-0.905-0.472-1.357-0.706c-0.698-0.363-1.392-0.72-2.079-1.069c-0.458-0.232-0.911-0.461-1.364-0.688
	c-0.683-0.343-1.36-0.676-2.032-1.006c-0.429-0.21-0.86-0.422-1.284-0.627c-0.713-0.345-1.414-0.677-2.113-1.007
	c-0.363-0.171-0.73-0.348-1.09-0.515c-0.979-0.457-1.943-0.9-2.891-1.329c-0.064-0.029-0.131-0.061-0.194-0.089
	C358.76,57.331,378.058,48.19,398.857,48.19z M113.143,48.19c20.799,0,40.097,9.142,53.212,24.845
	c-0.064,0.028-0.131,0.061-0.194,0.089c-0.949,0.428-1.913,0.872-2.891,1.329c-0.359,0.167-0.726,0.344-1.09,0.515
	c-0.699,0.33-1.4,0.664-2.113,1.007c-0.425,0.205-0.855,0.417-1.284,0.627c-0.673,0.329-1.349,0.664-2.032,1.006
	c-0.452,0.227-0.906,0.456-1.364,0.688c-0.688,0.349-1.381,0.706-2.079,1.069c-0.451,0.234-0.901,0.467-1.356,0.706
	c-0.767,0.403-1.543,0.82-2.322,1.239c-0.393,0.211-0.781,0.417-1.177,0.633c-1.171,0.638-2.352,1.291-3.545,1.966
	c-0.096,0.054-0.194,0.113-0.29,0.167c-1.1,0.624-2.21,1.263-3.327,1.918c-0.41,0.24-0.824,0.49-1.236,0.736
	c-0.813,0.483-1.626,0.969-2.446,1.467c-0.478,0.29-0.957,0.587-1.437,0.884c-0.771,0.476-1.545,0.958-2.322,1.449
	c-0.495,0.313-0.992,0.629-1.489,0.948c-0.786,0.504-1.574,1.018-2.365,1.537c-0.483,0.317-0.963,0.632-1.447,0.954
	c-0.867,0.578-1.738,1.17-2.609,1.767c-0.404,0.277-0.808,0.548-1.213,0.829c-1.275,0.884-2.554,1.785-3.835,2.709
	c-0.112,0.08-0.224,0.165-0.335,0.246c-1.169,0.846-2.34,1.708-3.512,2.589c-0.424,0.319-0.85,0.648-1.275,0.972
	c-0.865,0.658-1.73,1.322-2.597,1.999c-0.489,0.382-0.977,0.771-1.465,1.16c-0.812,0.646-1.624,1.298-2.436,1.96
	c-0.499,0.408-0.999,0.818-1.498,1.233c-0.819,0.679-1.637,1.37-2.456,2.068c-0.478,0.408-0.955,0.812-1.432,1.225
	c-0.901,0.781-1.799,1.577-2.698,2.379c-0.385,0.344-0.77,0.679-1.154,1.027c-1.28,1.159-2.557,2.336-3.827,3.54
	c-0.125,0.118-0.249,0.242-0.374,0.362c-1.14,1.085-2.277,2.187-3.407,3.309c-0.411,0.408-0.818,0.825-1.227,1.237
	c-0.846,0.852-1.691,1.709-2.531,2.583c-0.467,0.486-0.932,0.979-1.397,1.471c-0.784,0.83-1.564,1.668-2.341,2.516
	c-0.474,0.518-0.948,1.039-1.419,1.563c-0.778,0.866-1.552,1.746-2.323,2.632c-0.447,0.514-0.895,1.024-1.34,1.544
	c-0.847,0.992-1.686,2.002-2.522,3.019c-0.353,0.429-0.709,0.85-1.061,1.283c-1.18,1.457-2.35,2.934-3.506,4.44
	c-0.153,0.199-0.3,0.404-0.451,0.603c-0.998,1.309-1.986,2.634-2.963,3.98c-0.383,0.528-0.759,1.068-1.139,1.602
	c-0.741,1.04-1.477,2.086-2.206,3.148c-0.424,0.619-0.842,1.246-1.262,1.872c-0.677,1.011-1.348,2.031-2.012,3.062
	c-0.423,0.656-0.843,1.314-1.261,1.978c-0.254,0.403-0.514,0.795-0.766,1.202c-10.886-12.553-16.983-28.668-16.983-45.461
	C43.716,79.334,74.862,48.19,113.143,48.19z M467.861,298.607c-3.833,68.989-24.392,114.991-62.85,140.633
	c-33.379,22.255-74.358,25.256-110.041,25.256c-7.453,0-14.585-0.137-21.483-0.27c-6.18-0.119-12.016-0.231-17.487-0.231
	c-5.473,0-11.308,0.112-17.486,0.231c-6.896,0.132-14.028,0.27-21.484,0.27c-35.68,0-76.657-3.001-110.041-25.26
	c-38.46-25.644-59.017-71.644-62.85-140.629c-2.471-44.475,5.955-84.52,25.047-119.02c31.349-56.653,83.765-84.432,112.219-95.949
	c24.768-10.024,50.706-15.773,71.162-15.773c1.085,0,2.146,0.017,3.185,0.049L256,67.923l0.249-0.008
	c1.04-0.033,2.099-0.049,3.185-0.049c20.455,0,46.392,5.749,71.162,15.773c28.454,11.516,80.871,39.294,112.219,95.949
	C461.905,214.089,470.333,254.133,467.861,298.607z"/>
<path d="M206.347,235.701c8.776-8.776,13.61-20.446,13.61-32.858c0-12.412-4.834-24.082-13.61-32.858
	c-8.777-8.777-20.447-13.611-32.858-13.611c-12.412,0-24.082,4.834-32.859,13.611l-50.908,50.908
	c-18.117,18.117-18.117,47.598,0.001,65.717c8.776,8.776,20.446,13.61,32.858,13.61c12.411,0,24.081-4.834,32.858-13.61
	L206.347,235.701z M122.581,284.546c-8.226,0-15.959-3.204-21.777-9.02c-5.816-5.816-9.02-13.549-9.02-21.775
	s3.203-15.959,9.021-21.776l50.908-50.908c5.816-5.816,13.549-9.02,21.776-9.02c8.225,0,15.958,3.204,21.775,9.02
	c5.817,5.816,9.021,13.55,9.021,21.776c0,8.225-3.203,15.959-9.021,21.776l-50.907,50.908
	C138.54,281.343,130.808,284.546,122.581,284.546z"/>
<path d="M436.441,253.751c0-12.412-4.834-24.082-13.61-32.858l-50.908-50.908c-8.777-8.777-20.447-13.611-32.858-13.611
	c-12.412,0-24.082,4.834-32.859,13.611c-8.776,8.776-13.61,20.446-13.61,32.858c0,12.412,4.834,24.082,13.61,32.858l50.908,50.908
	c8.777,8.776,20.447,13.61,32.858,13.61c12.413,0,24.083-4.834,32.858-13.611C431.608,277.832,436.441,266.164,436.441,253.751z
	 M411.748,275.527c-5.817,5.816-13.55,9.02-21.777,9.02c-8.225,0-15.958-3.203-21.775-9.02l-50.908-50.908
	c-5.817-5.816-9.021-13.55-9.021-21.776c0-8.225,3.203-15.959,9.021-21.776c5.816-5.816,13.549-9.02,21.776-9.02
	c8.225,0,15.958,3.204,21.775,9.02l50.909,50.908C423.754,243.983,423.754,263.519,411.748,275.527z"/>
<path d="M308.304,415.191c-18.472,0-37.105-10.254-44.468-14.806v-20.447c5.343-1.219,10.287-3.673,14.382-7.204l23.902-20.614
	c6.038-5.209,8.482-13.053,6.378-20.472c-2.249-7.927-9.029-13.714-17.694-15.102c-13.089-2.097-24.812-3.161-34.841-3.161
	c-9.756,0-21.474,1.089-34.827,3.234c-8.636,1.388-15.393,7.165-17.636,15.078c-2.105,7.426,0.34,15.276,6.38,20.486l23.828,20.55
	c4.114,3.547,9.084,6.007,14.454,7.221v20.438c-7.344,4.558-25.908,14.797-44.468,14.797c-25.28,0-47.314-16.612-47.533-16.78
	l-4.769,6.218l-4.78,6.21c1.063,0.817,26.362,20.025,57.084,20.025c22.156,0,43.281-11.331,52.304-16.884
	c9.024,5.553,30.147,16.884,52.304,16.884c30.721,0,56.021-19.207,57.084-20.025l-9.55-12.428
	C355.618,398.579,333.585,415.191,308.304,415.191z M220.118,340.315c-1.839-1.586-1.852-3.237-1.538-4.343
	c0.569-2.011,2.456-3.462,5.042-3.877c12.535-2.014,23.416-3.035,32.342-3.035c9.201,0,20.089,0.997,32.362,2.963
	c3.08,0.493,4.651,2.34,5.095,3.904c0.312,1.099,0.299,2.742-1.537,4.324l-23.902,20.615c-3.204,2.764-7.472,4.286-12.017,4.286
	c-4.546,0-8.814-1.522-12.018-4.286L220.118,340.315z"/>
<g>
	<path style="fill:#FFFFFF;" d="M190.275,106.432l-5.908-14.518c-29.724,12.095-56.423,30.066-77.212,51.971l11.37,10.789
		C142.863,129.029,170.976,114.286,190.275,106.432z"/>
	<path style="fill:#FFFFFF;" d="M243.02,92.929l-1.411-15.61c-13.341,1.205-28.164,4.419-42.869,9.293l4.933,14.877
		C217.253,96.987,230.859,94.027,243.02,92.929z"/>
	<path style="fill:#FFFFFF;" d="M414.048,390.861l12.871,8.944c11.588-16.676,20.022-37.483,25.069-61.844l-15.347-3.18
		C432.026,357.061,424.424,375.929,414.048,390.861z"/>
</g>
<g>
</g>
<g>
</g>
<g>
</g>
<g>
</g>
<g>
</g>
<g>
</g>
<g>
</g>
<g>
</g>
<g>
</g>
<g>
</g>
<g>
</g>
<g>
</g>
<g>
</g>
<g>
</g>
<g>
</g>
</svg>
