<?xml version="1.0" encoding="iso-8859-1"?>
<!-- Generator: Adobe Illustrator 19.0.0, SVG Export Plug-In . SVG Version: 6.00 Build 0)  -->
<svg version="1.1" id="Layer_1" xmlns="http://www.w3.org/2000/svg" xmlns:xlink="http://www.w3.org/1999/xlink" x="0px" y="0px"
	 viewBox="0 0 512 512" style="enable-background:new 0 0 512 512;" xml:space="preserve">
<circle style="fill:#FFD15D;" cx="256" cy="256" r="256"/>
<path style="fill:#F9B54C;" d="M182.213,409.902l100.693,100.693c115.085-12.023,207.47-100.286,225.775-213.385L373.848,162.376
	l2.613,17.008l-46.502-46.506l-20.396,35.009l-65.789-65.789l-44.216,123.144l-39.088-39.429l11.409,29.35l51.51,51.281
	l-17.382,61.261L182.213,409.902z"/>
<g>
	<path style="fill:#599B13;" d="M201.054,245.253L201.054,245.253c-12.243,8.233-28.843,4.984-37.076-7.259l-37.271-55.422l0,0
		c12.243-8.233,28.843-4.984,37.076,7.259L201.054,245.253z"/>
	<path style="fill:#599B13;" d="M311.167,236.723L311.167,236.723c-8.233-12.243-4.984-28.843,7.259-37.076l55.42-37.271l0,0
		c8.233,12.243,4.984,28.843-7.259,37.076L311.167,236.723z"/>
	<path style="fill:#599B13;" d="M305.335,237.992L305.335,237.992c3.312-9.818,13.955-15.095,23.773-11.783l44.446,14.988l0,0
		c-3.312,9.818-13.955,15.095-23.773,11.783L305.335,237.992z"/>
</g>
<path style="fill:#79D720;" d="M243.774,256c-20.52,0-41.041,0-61.561,0c8.887-50.916,8.887-102.986,0-153.902
	c20.52,0,41.041,0,61.561,0C234.887,153.014,234.887,205.084,243.774,256z"/>
<g>
	<path style="fill:#66B31B;" d="M243.774,102.098c-10.29,0-20.58,0-30.87,0V256c10.29,0,20.58,0,30.87,0
		C234.887,205.084,234.887,153.014,243.774,102.098z"/>
	<path style="fill:#66B31B;" d="M243.774,409.902c-20.52,0-41.041,0-61.561,0c8.887-50.916,8.887-102.986,0-153.902
		c20.52,0,41.041,0,61.561,0C234.887,306.916,234.887,358.986,243.774,409.902z"/>
</g>
<path style="fill:#599B13;" d="M243.774,256c-10.29,0-20.58,0-30.87,0v153.902c10.29,0,20.58,0,30.87,0
	C234.887,358.986,234.887,306.916,243.774,256z"/>
<path style="fill:#79D720;" d="M329.959,271.389c-18.468,0-36.936,0-55.405,0c7.997-45.823,7.997-92.688,0-138.511
	c18.468,0,36.936,0,55.405,0C321.96,178.704,321.96,225.566,329.959,271.389z"/>
<g>
	<path style="fill:#66B31B;" d="M329.959,132.879c-9.521,0-19.041,0-28.562,0v138.511c9.521,0,19.041,0,28.562,0
		C321.96,225.566,321.96,178.704,329.959,132.879z"/>
	<path style="fill:#66B31B;" d="M329.959,409.902c-18.468,0-36.936,0-55.405,0c7.997-45.823,7.997-92.688,0-138.511
		c18.468,0,36.936,0,55.405,0C321.96,317.214,321.96,364.077,329.959,409.902z"/>
</g>
<path style="fill:#599B13;" d="M329.959,271.389c-9.521,0-19.041,0-28.562,0V409.9c9.521,0,19.041,0,28.562,0
	C321.96,364.077,321.96,317.214,329.959,271.389z"/>
<g>
</g>
<g>
</g>
<g>
</g>
<g>
</g>
<g>
</g>
<g>
</g>
<g>
</g>
<g>
</g>
<g>
</g>
<g>
</g>
<g>
</g>
<g>
</g>
<g>
</g>
<g>
</g>
<g>
</g>
</svg>
