<?xml version="1.0" encoding="iso-8859-1"?>
<!-- Generator: Adobe Illustrator 19.0.0, SVG Export Plug-In . SVG Version: 6.00 Build 0)  -->
<svg version="1.1" id="Layer_1" xmlns="http://www.w3.org/2000/svg" xmlns:xlink="http://www.w3.org/1999/xlink" x="0px" y="0px"
	 viewBox="0 0 512 512" style="enable-background:new 0 0 512 512;" xml:space="preserve">
<rect x="161.718" y="7.588" style="fill:#FECE00;" width="61.038" height="496.827"/>
<rect x="161.718" y="7.588" style="fill:#DDB201;" width="18.104" height="496.827"/>
<rect x="278.898" y="81.843" style="fill:#FECE00;" width="50.292" height="422.079"/>
<rect x="278.898" y="81.843" style="fill:#DDB201;" width="18.104" height="422.029"/>
<g>
	<path style="fill:#65C27C;" d="M161.706,137.635c0,0-37.76-1.757-62.133-26.131S73.442,49.37,73.442,49.37
		s37.76,1.757,62.133,26.131S161.706,137.635,161.706,137.635z"/>
	<path style="fill:#65C27C;" d="M161.706,137.079c0,0-37.76,1.757-62.133,26.131s-26.131,62.133-26.131,62.133
		s37.76-1.757,62.133-26.131S161.706,137.079,161.706,137.079z"/>
	<path style="fill:#65C27C;" d="M435.258,386.493c0,0-23.588-21.594-52.749-21.663c-29.161-0.07-52.852,21.41-52.852,21.41
		s23.588,21.594,52.749,21.663C411.567,407.973,435.258,386.493,435.258,386.493z"/>
	<path style="fill:#65C27C;" d="M382.075,407.896c-26.985-0.216-49.116-18.761-52.072-21.348
		c0.271,4.036,2.851,32.934,21.952,52.126c20.571,20.669,52.512,22.233,52.512,22.233s-1.41-31.949-21.981-52.618
		C382.351,408.154,382.21,408.029,382.075,407.896z"/>
</g>
<g>
	<path style="fill:#40A559;" d="M99.573,111.503C75.199,87.13,73.442,49.37,73.442,49.37l88.265,88.265
		C161.706,137.635,123.946,135.877,99.573,111.503z"/>
	<path style="fill:#40A559;" d="M135.575,199.213c-24.374,24.374-62.133,26.131-62.133,26.131l88.265-88.265
		C161.706,137.079,159.949,174.839,135.575,199.213z"/>
	<path style="fill:#40A559;" d="M382.265,407.588c29.161,0.07,52.852-21.41,52.852-21.41s-0.058-0.052-0.142-0.126H329.656
		C331.541,387.73,354.339,407.521,382.265,407.588z"/>
	<path style="fill:#40A559;" d="M351.964,438.826c20.571,20.669,52.512,22.232,52.512,22.232s-0.004-0.078-0.01-0.189
		l-74.471-74.471C330.139,388.916,332.265,419.033,351.964,438.826z"/>
</g>
<path d="M154.13,0h-10.573v15.176h10.573v72.201c-3.523-6.008-7.847-11.9-13.188-17.241C114.79,43.986,75.456,41.868,73.795,41.791
	l-8.32-0.387l0.386,8.32c0.078,1.661,2.194,40.996,28.345,67.146c9.845,9.845,21.558,16.282,32.427,20.488
	c-10.869,4.206-22.582,10.643-32.427,20.488c-26.151,26.151-28.266,65.485-28.345,67.146l-0.386,8.32l8.32-0.387
	c1.662-0.077,40.996-2.194,67.146-28.345c5.341-5.341,9.665-11.234,13.188-17.241V249.2h-10.573v15.176h10.573v117.901h-10.573
	v15.176h10.573v99.371h-10.573V512h10.573h76.211h10.572v-15.176H230.34v-99.371h10.572v-15.176H230.34V264.376h10.572V249.2H230.34
	V145.542h10.572v-15.176H230.34V15.176h10.572V0H230.34H154.13z M82.175,58.086c11.876,2.052,32.934,7.68,48.035,22.78
	c15.025,15.024,20.681,36.125,22.759,48.031c-11.905-2.078-33.006-7.735-48.031-22.758C89.902,91.101,84.249,69.981,82.175,58.086z
	 M130.21,193.848c-15.036,15.036-36.156,20.689-48.052,22.763c2.052-11.876,7.68-32.934,22.781-48.035
	c15.032-15.033,36.151-20.687,48.052-22.762C150.939,157.689,145.311,178.747,130.21,193.848z M215.165,496.824h-45.859v-99.371
	h45.858v99.371H215.165z M215.165,382.275h-45.859v-117.9h45.858v117.9H215.165z M215.165,249.2h-45.859V145.585l0.368,0.017
	l-0.003-0.06h45.493V249.2H215.165z M215.165,130.366h-45.549l0.059-1.254l-0.368,0.017V15.176h45.858V130.366z M178.27,482.154
	V405.05h15.176v77.104H178.27z M178.27,369.908v-42.904h15.176v42.904H178.27z M193.446,312.357H178.27v-41.112h15.176V312.357z
	 M193.446,243.135H178.27v-60.64h15.176V243.135z M193.446,169.149H178.27v-18.951h15.176V169.149z M193.446,120.265H178.27V21.81
	h15.176V120.265z M309.031,485.465h-15.176v-79.802h15.176V485.465z M293.854,349.48h15.176v17.577h-15.176V349.48z
	 M293.854,269.773h15.176v65.674h-15.176V269.773z M293.854,241.541h15.176v14.829h-15.176V241.541z M293.854,173.75h15.176v26.153
	h-15.176V173.75z M309.031,100.105v60.314h-15.176v-60.314H309.031z M446.524,386.52l-6.143-5.624
	c-1.052-0.962-26.12-23.579-57.856-23.655c-0.055,0-0.105,0-0.16,0c-18.679,0-35.067,7.805-45.587,14.401V229.248h9.573v-15.176
	h-9.573V89.432h9.573V74.256h-9.573h-65.468h-9.572v15.176h9.573v124.64h-9.573v15.176h9.573v149.214h-9.573v15.176h9.573v102.916
	h-9.573v15.176h9.573V512h65.468v-0.27h9.573v-15.176h-9.573v-64.87c2.722,4.295,5.953,8.481,9.797,12.342
	c22.386,22.493,56.095,24.389,57.521,24.459l8.319,0.407l-0.366-8.322c-0.054-1.204-1.304-25.488-15.211-46.553
	c24.623-5.007,42.628-21.097,43.518-21.903L446.524,386.52z M286.488,89.432h35.116v124.64h-35.116V89.432z M286.488,229.248h35.116
	v139.864l-0.403-0.353l0.403,5.992v3.711h-35.116V229.248z M321.603,393.638v102.674h-35.116V393.638H321.603z M357.332,433.322
	c-8.938-8.981-13.862-20.516-16.561-29.977c7.3,4.199,16.641,8.426,27.226,10.614c0.303,0.063,0.614,0.115,0.92,0.175
	c0.572,0.111,1.141,0.225,1.72,0.323c0.557,0.095,1.122,0.175,1.686,0.258c0.337,0.05,0.67,0.105,1.009,0.15
	c0.663,0.089,1.333,0.16,2.004,0.231c0.251,0.026,0.499,0.058,0.75,0.082c0.706,0.067,1.419,0.116,2.134,0.162
	c0.18,0.011,0.358,0.03,0.538,0.04c10.602,11.679,15.051,27.019,16.884,36.661C385.518,450.064,369.13,445.175,357.332,433.322z
	 M382.683,400.312l-0.512-0.004c-0.836-0.006-1.665-0.035-2.491-0.08c-0.394-0.021-0.784-0.055-1.176-0.084
	c-0.546-0.041-1.091-0.089-1.632-0.147c-0.357-0.037-0.713-0.076-1.068-0.12c-0.823-0.103-1.641-0.219-2.451-0.355
	c-0.048-0.008-0.097-0.014-0.145-0.022c-0.932-0.16-1.854-0.345-2.766-0.545c-0.135-0.029-0.267-0.061-0.402-0.091
	c-11.575-2.62-21.526-8.271-27.876-12.592c8.534-5.748,23.526-13.853,40.201-13.853c0.041,0,0.082,0,0.123,0
	c16.738,0.04,31.755,8.257,40.279,14.06C414.294,392.206,399.402,400.268,382.683,400.312z"/>
<g>
</g>
<g>
</g>
<g>
</g>
<g>
</g>
<g>
</g>
<g>
</g>
<g>
</g>
<g>
</g>
<g>
</g>
<g>
</g>
<g>
</g>
<g>
</g>
<g>
</g>
<g>
</g>
<g>
</g>
</svg>
