<?xml version="1.0" encoding="iso-8859-1"?>
<!-- Generator: Adobe Illustrator 18.1.1, SVG Export Plug-In . SVG Version: 6.00 Build 0)  -->
<svg version="1.1" id="Capa_1" xmlns="http://www.w3.org/2000/svg" xmlns:xlink="http://www.w3.org/1999/xlink" x="0px" y="0px"
	 viewBox="0 0 42.035 42.035" style="enable-background:new 0 0 42.035 42.035;" xml:space="preserve">
<g>
	<g>
		<path style="fill:#030104;" d="M15.331,21.11c-0.771,0.245-1.714,0.517-2.416,0.765c0.993-0.349,1.812-0.473,2.54-0.473
			c0.719,0,1.349,0.12,1.969,0.262c0.947,0.216,1.903,0.353,2.919,0.566v-2.252c-0.759,0-1.548,0.07-2.32,0.233
			C17.115,20.403,16.198,20.834,15.331,21.11z"/>
		<path style="fill:#030104;" d="M19.377,26.114c-0.855,0.931-1.815,1.738-2.711,2.897c0.656-0.643,1.393-1.197,2.237-1.577
			c0.46-0.208,0.948-0.341,1.44-0.439v-1.786C19.933,25.498,19.611,25.86,19.377,26.114z"/>
		<path style="fill:#030104;" d="M19.84,22.759c-0.842,0.147-1.676,0.404-2.424,0.768c-0.803,0.391-1.312,0.891-1.904,1.419
			c-0.72,0.642-1.411,1.078-2.229,1.81c-0.593,0.53-1.166,1.145-1.677,1.801c0.264-0.34,0.909-0.788,1.211-1.014
			c0.84-0.627,1.715-1.139,2.603-1.531c1.619-0.715,3.281-1.057,4.924-1.189v-2.119h-0.001C20.175,22.724,20.007,22.73,19.84,22.759
			z"/>
		<path style="fill:#030104;" d="M18.783,15.725c-0.822-0.005-0.976,0.854-1.212,1.307c-0.358,0.687-1.157,0.767-1.974,1.066
			c0.43-0.16,1.38,0.019,1.922,0.027c0.655,0.01,1.285,0.018,1.885-0.014c0.321-0.017,0.637-0.053,0.939-0.11V7.442
			c0-0.022,0-0.044,0-0.066c-0.781-0.617-1.688-1.287-2.76-2.025c0.633,0.435,0.933,1.09,1.137,1.51
			c0.576,1.187,0.526,2.241-0.01,3.083c-0.78-0.657-1.86-1.281-2.92-1.772c-0.844-0.392-1.814-0.75-2.809-0.959
			c-0.755-0.159-1.598-0.139-2.34-0.302c-0.661-0.145-1.447-0.4-2.04-0.582c1.667,0.513,2.547,1.27,3.431,2.09
			c0.999,0.926,2.128,1.58,3.43,2.535c-0.219-0.069-0.435-0.148-0.658-0.213c-0.372-0.11-0.752-0.198-1.135-0.273
			c-0.759-0.147-1.54-0.233-2.294-0.225c-0.809,0.009-1.424,0.218-2.135,0.374c-0.865,0.189-1.627,0.159-2.625,0.227
			c-0.725,0.049-1.476,0.136-2.206,0.249c0.377-0.058,1.092,0.054,1.44,0.082c0.966,0.078,1.919,0.194,2.841,0.358
			c2.067,0.367,4.035,0.944,5.927,1.524c-0.957-0.194-1.817,0.329-2.37,0.592c-1.138,0.542-2.43,0.812-3.943,1.272
			c0.992-0.157,1.986-0.258,2.997-0.213c0.944,0.043,1.885,0.263,2.783,0.454C15.897,15.548,17.343,15.629,18.783,15.725z"/>
		<path style="fill:#030104;" d="M36.934,22.679c-0.271,0.554-0.605,1.147-1.073,1.69c-0.267,0.341-0.591,0.654-0.938,0.953
			c-0.148,0.128-0.305,0.25-0.464,0.37c-0.088,0.066-0.165,0.141-0.256,0.204c-0.077,0.053-0.166,0.093-0.246,0.144
			c-0.59,0.377-1.237,0.699-1.935,0.926c-0.164,0.051-0.342,0.074-0.514,0.115c-0.248,0.059-0.492,0.127-0.748,0.164
			c-0.412,0.062-0.828,0.098-1.225,0.107c-0.846-0.025-1.689-0.143-2.484-0.387c-0.454-0.148-0.884-0.34-1.295-0.553
			c-0.018-0.009-0.034-0.021-0.052-0.031c-0.287-0.15-0.572-0.306-0.832-0.486c-0.643-0.452-1.214-0.963-1.658-1.527
			c-0.468-0.543-0.801-1.136-1.074-1.689c-0.259-0.562-0.424-1.104-0.531-1.588c-0.081-0.398-0.126-0.745-0.149-1.058
			c0-0.005-0.001-0.011-0.001-0.016v0.016v2.471v0.108v2.142v0.002v2.061v0.562v0.562v1.352c0.005-0.097,0.009-0.164,0.009-0.164
			s0.015,0.098,0.044,0.282c0.035,0.181,0.054,0.46,0.144,0.79c0.065,0.335,0.182,0.73,0.348,1.174
			c0.175,0.438,0.41,0.911,0.698,1.405c0.312,0.479,0.674,0.979,1.131,1.438c0.438,0.476,0.993,0.879,1.574,1.259
			c0.59,0.376,1.265,0.637,1.955,0.858c0.699,0.203,1.438,0.291,2.175,0.303c0.774-0.016,1.47-0.1,2.175-0.303
			c0.689-0.225,1.365-0.483,1.955-0.859c0.581-0.381,1.135-0.784,1.573-1.26c0.457-0.457,0.817-0.959,1.13-1.437
			c0.287-0.493,0.521-0.967,0.698-1.405c0.165-0.441,0.284-0.84,0.349-1.177c0.09-0.333,0.108-0.604,0.145-0.787
			c0.018-0.11,0.027-0.18,0.035-0.226v-8.952c-0.026,0.261-0.065,0.541-0.131,0.858C37.359,21.576,37.193,22.117,36.934,22.679z"/>
		<path style="fill:#030104;" d="M36.934,33.082c-0.272,0.553-0.606,1.147-1.074,1.69c-0.443,0.565-1.016,1.075-1.658,1.526
			c-0.648,0.449-1.389,0.812-2.18,1.068c-0.791,0.245-1.678,0.366-2.486,0.387c-0.846-0.024-1.689-0.142-2.484-0.387
			c-0.792-0.258-1.533-0.619-2.181-1.068c-0.643-0.453-1.214-0.963-1.658-1.527c-0.468-0.543-0.801-1.137-1.074-1.689
			c-0.259-0.562-0.424-1.104-0.531-1.589c-0.083-0.405-0.128-0.758-0.15-1.073v3.547c0,4.457,3.613,8.068,8.069,8.068
			s8.069-3.613,8.069-8.068v-3.333c-0.027,0.262-0.066,0.541-0.131,0.858C37.358,31.978,37.192,32.519,36.934,33.082z"/>
		<path style="fill:#030104;" d="M34.513,6.221C31.784,2.357,28.107,0,25.262,0c-0.875,0-1.671,0.223-2.337,0.693
			c-1.714,1.21-1.466,3.846-1.466,6.748v0.851v9.318v1.279c0.005-0.097,0.009-0.165,0.009-0.165s0.012,0.078,0.031,0.195
			c0.005,0.031,0.008,0.049,0.014,0.088c0.023,0.118,0.047,0.287,0.079,0.474c0.018,0.102,0.034,0.202,0.065,0.318
			c0.016,0.08,0.044,0.175,0.065,0.262c0.068,0.276,0.157,0.575,0.283,0.912c0.175,0.439,0.41,0.911,0.698,1.405
			c0.312,0.479,0.674,0.979,1.131,1.438c0.438,0.476,0.993,0.879,1.574,1.259c0.59,0.376,1.265,0.637,1.955,0.859
			c0.699,0.203,1.438,0.29,2.175,0.303c0.774-0.018,1.47-0.102,2.175-0.303c0.41-0.133,0.807-0.29,1.191-0.465
			c0.211-0.096,0.416-0.201,0.613-0.318c0.047-0.029,0.103-0.048,0.149-0.078c0.132-0.086,0.251-0.179,0.378-0.267
			c0.438-0.306,0.855-0.623,1.195-0.992c0.457-0.458,0.818-0.959,1.13-1.437c0.287-0.494,0.522-0.968,0.698-1.406
			c0.164-0.442,0.283-0.84,0.349-1.177c0.089-0.333,0.108-0.604,0.144-0.787c0.019-0.111,0.029-0.18,0.037-0.226v-2.913
			c0-0.088-0.011-0.173-0.014-0.261C37.862,12.977,36.804,9.465,34.513,6.221z M34.388,16.274c-0.422,0.297-0.936,0.448-1.531,0.448
			c-1.551,0-3.434-1.01-5.107-2.639c-0.005-0.005-0.011-0.009-0.016-0.015c-0.611-0.597-1.195-1.271-1.722-2.016
			c-2.59-3.666-3.13-7.928-1.179-9.306c0.42-0.297,0.936-0.448,1.531-0.448c2.121,0,4.872,1.877,6.845,4.67
			C35.798,10.634,36.337,14.896,34.388,16.274z"/>
	</g>
</g>
<g>
</g>
<g>
</g>
<g>
</g>
<g>
</g>
<g>
</g>
<g>
</g>
<g>
</g>
<g>
</g>
<g>
</g>
<g>
</g>
<g>
</g>
<g>
</g>
<g>
</g>
<g>
</g>
<g>
</g>
</svg>
